<svg width="30" height="16" fill="none" xmlns="http://www.w3.org/2000/svg"><path d="M21.953 5.02l2.364-3.844a.427.427 0 00.048-.341.456.456 0 00-.222-.274.495.495 0 00-.651.163l-2.394 3.894c-1.828-.783-3.884-1.22-6.096-1.22s-4.27.437-6.097 1.22L6.512.724A.476.476 0 006.22.516a.506.506 0 00-.363.045.454.454 0 00-.222.274.426.426 0 00.049.34L8.042 5.02C3.967 7.092 1.206 10.965.75 15.5h28.5c-.456-4.535-3.217-8.408-7.297-10.48zM8.457 11.743a1.25 1.25 0 01-.664-.19 1.14 1.14 0 01-.44-.502 1.058 1.058 0 01-.068-.648c.046-.218.16-.418.327-.575a1.22 1.22 0 01.612-.306c.231-.044.472-.021.69.063.218.085.405.229.536.413.131.185.201.402.201.623 0 .298-.126.583-.35.793-.224.21-.528.329-.844.329zm13.08 0a1.25 1.25 0 01-.662-.191 1.14 1.14 0 01-.437-.505 1.057 1.057 0 01-.066-.647c.046-.217.16-.417.328-.573.167-.157.38-.263.611-.306.232-.043.472-.02.69.065.218.085.404.229.535.413a1.073 1.073 0 01.11 1.052c-.06.136-.149.26-.26.364a1.204 1.204 0 01-.388.243 1.27 1.27 0 01-.458.085h-.002z" fill="#fff"/></svg>