<svg width="26" height="31" fill="none" xmlns="http://www.w3.org/2000/svg"><path d="M6.848 29.439a6.615 6.615 0 01-1.552-1.44 18.717 18.717 0 01-1.333-1.817 17.698 17.698 0 01-2.227-4.546c-.625-1.875-.928-3.672-.928-5.43 0-1.963.425-3.677 1.255-5.117a7.2 7.2 0 012.623-2.725 6.984 6.984 0 013.549-1.05c.44 0 .913.064 1.416.186.36.102.8.263 1.337.464.684.264 1.06.425 1.187.464.4.146.737.21 1.002.21.2 0 .483-.064.805-.161.18-.064.522-.176 1.01-.385.484-.177.865-.328 1.168-.44.464-.137.913-.264 1.313-.327a6.246 6.246 0 011.435-.06 8.5 8.5 0 012.428.523c1.274.513 2.304 1.313 3.07 2.451-.323.2-.627.43-.908.688a7.643 7.643 0 00-1.538 1.88 6.399 6.399 0 00-.805 3.15c.02 1.352.366 2.544 1.05 3.574a6.715 6.715 0 001.919 1.919c.39.264.727.444 1.05.566-.151.469-.313.923-.503 1.373a17.975 17.975 0 01-1.563 2.89c-.541.787-.966 1.373-1.289 1.763-.502.595-.986 1.05-1.474 1.366a3.294 3.294 0 01-1.817.547 4.123 4.123 0 01-1.294-.156 15.04 15.04 0 01-1.07-.405 8.558 8.558 0 00-1.128-.425 5.876 5.876 0 00-2.905-.005c-.39.113-.767.244-1.138.405-.522.22-.869.367-1.07.43-.4.117-.815.19-1.235.214-.65 0-1.256-.186-1.856-.561l.016-.014zm8.57-23.077c-.85.425-1.661.606-2.466.546-.127-.81 0-1.64.336-2.549.287-.77.71-1.48 1.25-2.1A6.654 6.654 0 0116.574.687C17.399.263 18.186.033 18.937 0c.098.85 0 1.685-.312 2.588a7.482 7.482 0 01-1.25 2.197 6.402 6.402 0 01-1.982 1.577h.024z" fill="#fff"/></svg>