<svg width="355" height="355" fill="none" xmlns="http://www.w3.org/2000/svg"><g filter="url(#filter0_d)"><path d="M231.778 87.34a105.206 105.206 0 00-74.326-13.234l8.379 43.384a61.024 61.024 0 0143.109 7.675l22.838-37.826z" fill="url(#paint0_radial)"/></g><g filter="url(#filter1_d)"><path d="M144.968 86.575a96.443 96.443 0 00-29.79 17.141l26.134 30.947a55.949 55.949 0 0117.278-9.941l-13.622-38.147z" fill="url(#paint1_radial)"/></g><g filter="url(#filter2_d)"><path d="M96.03 111.898a104.47 104.47 0 00-10.833 16.408l38.725 20.62a60.636 60.636 0 016.283-9.516L96.03 111.898z" fill="url(#paint2_radial)"/></g><g filter="url(#filter3_d)"><path d="M82.76 161.305a95.996 95.996 0 0052.176 102.193 95.98 95.98 0 0039.471 9.856l1.258-40.3a55.683 55.683 0 01-41.363-20.401 55.672 55.672 0 01-11.793-44.588l-39.749-6.76z" fill="url(#paint3_radial)"/></g><g filter="url(#filter4_d)"><path d="M246.599 110.86a95.996 95.996 0 0124.439 87.709 95.995 95.995 0 01-59.791 68.668l-14.225-37.757a55.654 55.654 0 0033.989-67.017 55.657 55.657 0 00-13.495-23.636l29.083-27.967z" fill="url(#paint4_radial)"/></g><defs><radialGradient id="paint0_radial" cx="0" cy="0" r="1" gradientUnits="userSpaceOnUse" gradientTransform="rotate(-72.079 210.61 -33.208) scale(110.554)"><stop offset=".375" stop-color="#FF123D"/><stop offset="1" stop-color="#0075FF"/></radialGradient><radialGradient id="paint1_radial" cx="0" cy="0" r="1" gradientUnits="userSpaceOnUse" gradientTransform="rotate(-105.628 155.994 21.407) scale(101.347)"><stop offset=".375" stop-color="#FF123D"/><stop offset="1" stop-color="#0075FF"/></radialGradient><radialGradient id="paint2_radial" cx="0" cy="0" r="1" gradientUnits="userSpaceOnUse" gradientTransform="rotate(-141.166 119.966 57.435) scale(109.771)"><stop offset=".375" stop-color="#FF123D"/><stop offset="1" stop-color="#0075FF"/></radialGradient><radialGradient id="paint3_radial" cx="0" cy="0" r="1" gradientUnits="userSpaceOnUse" gradientTransform="rotate(-161.262 103.335 74.066) scale(100.882)"><stop offset=".375" stop-color="#FF123D"/><stop offset="1" stop-color="#0075FF"/></radialGradient><radialGradient id="paint4_radial" cx="0" cy="0" r="1" gradientUnits="userSpaceOnUse" gradientTransform="rotate(-67.537 221.359 -43.958) scale(100.882)"><stop offset=".375" stop-color="#FF123D"/><stop offset="1" stop-color="#0075FF"/></radialGradient><filter id="filter0_d" x="107.452" y="12.197" width="154.326" height="132.969" filterUnits="userSpaceOnUse" color-interpolation-filters="sRGB"><feFlood flood-opacity="0" result="BackgroundImageFix"/><feColorMatrix in="SourceAlpha" values="0 0 0 0 0 0 0 0 0 0 0 0 0 0 0 0 0 0 127 0"/><feOffset dx="-10" dy="-20"/><feGaussianBlur stdDeviation="20"/><feColorMatrix values="0 0 0 0 0 0 0 0 0 0.28475 0 0 0 0 0.8375 0 0 0 0.4 0"/><feBlend in2="BackgroundImageFix" result="effect1_dropShadow"/><feBlend in="SourceGraphic" in2="effect1_dropShadow" result="shape"/></filter><filter id="filter1_d" x="55.178" y="26.575" width="123.412" height="128.088" filterUnits="userSpaceOnUse" color-interpolation-filters="sRGB"><feFlood flood-opacity="0" result="BackgroundImageFix"/><feColorMatrix in="SourceAlpha" values="0 0 0 0 0 0 0 0 0 0 0 0 0 0 0 0 0 0 127 0"/><feOffset dx="-20" dy="-20"/><feGaussianBlur stdDeviation="20"/><feColorMatrix values="0 0 0 0 0 0 0 0 0 0.28475 0 0 0 0 0.8375 0 0 0 0.4 0"/><feBlend in2="BackgroundImageFix" result="effect1_dropShadow"/><feBlend in="SourceGraphic" in2="effect1_dropShadow" result="shape"/></filter><filter id="filter2_d" x="25.197" y="51.898" width="125.008" height="117.028" filterUnits="userSpaceOnUse" color-interpolation-filters="sRGB"><feFlood flood-opacity="0" result="BackgroundImageFix"/><feColorMatrix in="SourceAlpha" values="0 0 0 0 0 0 0 0 0 0 0 0 0 0 0 0 0 0 127 0"/><feOffset dx="-20" dy="-20"/><feGaussianBlur stdDeviation="20"/><feColorMatrix values="0 0 0 0 0 0 0 0 0 0.28475 0 0 0 0 0.8375 0 0 0 0.4 0"/><feBlend in2="BackgroundImageFix" result="effect1_dropShadow"/><feBlend in="SourceGraphic" in2="effect1_dropShadow" result="shape"/></filter><filter id="filter3_d" x="21.401" y="141.305" width="174.264" height="192.05" filterUnits="userSpaceOnUse" color-interpolation-filters="sRGB"><feFlood flood-opacity="0" result="BackgroundImageFix"/><feColorMatrix in="SourceAlpha" values="0 0 0 0 0 0 0 0 0 0 0 0 0 0 0 0 0 0 127 0"/><feOffset dx="-20" dy="20"/><feGaussianBlur stdDeviation="20"/><feColorMatrix values="0 0 0 0 0 0 0 0 0 0.28475 0 0 0 0 0.8375 0 0 0 0.4 0"/><feBlend in2="BackgroundImageFix" result="effect1_dropShadow"/><feBlend in="SourceGraphic" in2="effect1_dropShadow" result="shape"/></filter><filter id="filter4_d" x="177.022" y="80.86" width="156.379" height="236.377" filterUnits="userSpaceOnUse" color-interpolation-filters="sRGB"><feFlood flood-opacity="0" result="BackgroundImageFix"/><feColorMatrix in="SourceAlpha" values="0 0 0 0 0 0 0 0 0 0 0 0 0 0 0 0 0 0 127 0"/><feOffset dx="20" dy="10"/><feGaussianBlur stdDeviation="20"/><feColorMatrix values="0 0 0 0 0 0 0 0 0 0.28475 0 0 0 0 0.8375 0 0 0 0.4 0"/><feBlend in2="BackgroundImageFix" result="effect1_dropShadow"/><feBlend in="SourceGraphic" in2="effect1_dropShadow" result="shape"/></filter></defs></svg>