<svg width="71" height="75" fill="none" xmlns="http://www.w3.org/2000/svg"><g filter="url(#filter0_d)"><path d="M42.847 64.1C52.873 64.1 61 55.973 61 45.948s-8.127-18.153-18.153-18.153c-10.025 0-18.152 8.128-18.152 18.153 0 10.025 8.127 18.152 18.152 18.152z" fill="url(#paint0_linear)"/></g><g filter="url(#filter1_bdi)"><path d="M55.403 10.4c-4.538 0-8.925.907-13.16 2.571-4.539 1.815-8.926 4.538-12.708 8.32-1.663 1.664-4.235 4.992-4.084 4.84-4.236-2.722-9.984-2.117-13.766 1.665-.302.302-.756.756-.907 1.059-3.026 4.084-3.026 9.68.151 13.614.303.302.756.151.756-.151.152-.908.606-1.816 1.362-2.572 2.723-2.723 6.656-.454 6.656-.454l7.866 7.866s2.269 3.933-.454 6.656c-.756.757-1.664 1.21-2.571 1.362-.454 0-.454.605-.152.756 3.933 3.177 9.682 3.177 13.615.151.453-.302.756-.605 1.059-.907 3.781-3.782 4.235-9.38 1.663-13.766 1.665-1.21 3.328-2.572 4.841-4.084 3.782-3.782 6.505-8.018 8.32-12.707 1.664-4.236 2.572-8.623 2.572-13.16 0-.606-.454-1.06-1.06-1.06z" fill="#98B5FF" fill-opacity=".6"/></g><g filter="url(#filter2_f)"><path d="M12.216 28.326c3.512-3.512 8.814-4.08 12.735-1.624a.75.75 0 001.03-.04l.659-.658-.104-.066c.23-.292.525-.664.858-1.072.83-1.019 1.869-2.242 2.672-3.045 3.703-3.703 8-6.372 12.453-8.153 4.155-1.632 8.449-2.519 12.884-2.519.19 0 .309.118.309.31 0 4.435-.887 8.73-2.52 12.886l-.001.003c-1.778 4.592-4.443 8.74-8.151 12.447-1.478 1.479-3.11 2.815-4.752 4.008l-.55.4.345.586c2.41 4.113 1.976 9.332-1.548 12.856-.301.302-.558.557-.944.814l-.022.014-.02.016c-3.492 2.686-8.531 2.81-12.165.252a5.635 5.635 0 002.261-1.397c1.596-1.595 1.708-3.544 1.457-5.006a8.585 8.585 0 00-.849-2.492l-.023-.043-.007-.012-.003-.005v-.001l-.001-.001-.65.374.65-.375-.05-.085-.07-.07-7.866-7.866-.07-.07-.085-.05-.375.65.374-.65h0l-.002-.001-.005-.002-.012-.008a.446.446 0 00-.043-.023 8.033 8.033 0 00-.683-.32 8.594 8.594 0 00-1.81-.53c-1.46-.25-3.41-.138-5.005 1.458a5.636 5.636 0 00-1.398 2.261c-2.553-3.617-2.439-8.531.261-12.176l.04-.053.029-.058a2.2 2.2 0 01.283-.363c.155-.172.33-.348.484-.501z" stroke="#FFDFF4" stroke-opacity=".2" stroke-width="1.5"/></g><g filter="url(#filter3_bdi)"><path fill-rule="evenodd" clip-rule="evenodd" d="M20.227 44.214c-1.052-1.052-2.861-1.09-4.102.027l-.008.007a8.496 8.496 0 00-1.474 1.68 5.416 5.416 0 00-.527 1 4.1 4.1 0 001.354-.058l2.255-.45-1.546 1.7-.005.006-.02.023a10.62 10.62 0 00-.395.486c-.258.334-.591.806-.9 1.353-.554.982-.952 2.07-.862 3.027.874.068 1.907-.339 2.874-.925a12.252 12.252 0 001.827-1.368l.024-.022.005-.005 1.734-1.655-.47 2.35a4.102 4.102 0 00-.059 1.347c.285-.118.594-.292.923-.524.582-.411 1.183-.973 1.762-1.624l.015-.017.015-.016c1.027-1.026.956-2.966-.151-4.073l-2.269-2.27zm-.827 9.449l-.676.337-.002-.002-.001-.003-.003-.007-.009-.018a1.93 1.93 0 01-.09-.224 3.969 3.969 0 01-.152-.59 4.705 4.705 0 01-.042-.28c-.234.167-.493.34-.77.507-1.173.712-2.9 1.481-4.519 1.005l-.403-.118-.112-.405c-.464-1.668.24-3.414.92-4.62.164-.29.333-.56.495-.803a4.714 4.714 0 01-.33-.048 3.956 3.956 0 01-.762-.219 1.773 1.773 0 01-.053-.023l-.018-.009-.007-.003-.003-.002h-.002l.337-.677-.337.677-.48-.24.067-.531c.095-.765.463-1.557.931-2.27a10.006 10.006 0 011.738-1.984c1.784-1.602 4.51-1.64 6.18.031l2.269 2.269c1.61 1.61 1.846 4.498.167 6.197-.627.703-1.307 1.346-2.006 1.839-.696.491-1.457.867-2.233.964l-.53.067-.24-.48.676-.337z" fill="#FF123D"/></g><defs><filter id="filter0_d" x="14.695" y="17.795" width="56.305" height="56.305" filterUnits="userSpaceOnUse" color-interpolation-filters="sRGB"><feFlood flood-opacity="0" result="BackgroundImageFix"/><feColorMatrix in="SourceAlpha" values="0 0 0 0 0 0 0 0 0 0 0 0 0 0 0 0 0 0 127 0"/><feOffset/><feGaussianBlur stdDeviation="5"/><feColorMatrix values="0 0 0 0 0.00833333 0 0 0 0 0.762 0 0 0 0 1 0 0 0 0.5 0"/><feBlend in2="BackgroundImageFix" result="effect1_dropShadow"/><feBlend in="SourceGraphic" in2="effect1_dropShadow" result="shape"/></filter><filter id="filter1_bdi" x="-1.473" y=".399" width="67.934" height="67.934" filterUnits="userSpaceOnUse" color-interpolation-filters="sRGB"><feFlood flood-opacity="0" result="BackgroundImageFix"/><feGaussianBlur in="BackgroundImage" stdDeviation="5"/><feComposite in2="SourceAlpha" operator="in" result="effect1_backgroundBlur"/><feColorMatrix in="SourceAlpha" values="0 0 0 0 0 0 0 0 0 0 0 0 0 0 0 0 0 0 127 0"/><feOffset dy="-2"/><feGaussianBlur stdDeviation="4"/><feColorMatrix values="0 0 0 0 0 0 0 0 0 0 0 0 0 0 0 0 0 0 0.1 0"/><feBlend in2="effect1_backgroundBlur" result="effect2_dropShadow"/><feBlend in="SourceGraphic" in2="effect2_dropShadow" result="shape"/><feColorMatrix in="SourceAlpha" values="0 0 0 0 0 0 0 0 0 0 0 0 0 0 0 0 0 0 127 0" result="hardAlpha"/><feOffset dy="-2"/><feGaussianBlur stdDeviation="3.5"/><feComposite in2="hardAlpha" operator="arithmetic" k2="-1" k3="1"/><feColorMatrix values="0 0 0 0 1 0 0 0 0 1 0 0 0 0 1 0 0 0 0.3 0"/><feBlend in2="shape" result="effect3_innerShadow"/></filter><filter id="filter2_f" x="7.527" y="9.399" width="49.934" height="49.934" filterUnits="userSpaceOnUse" color-interpolation-filters="sRGB"><feFlood flood-opacity="0" result="BackgroundImageFix"/><feBlend in="SourceGraphic" in2="BackgroundImageFix" result="shape"/><feGaussianBlur stdDeviation=".5" result="effect1_foregroundBlur"/></filter><filter id="filter3_bdi" x="2.381" y="31.901" width="32.506" height="32.634" filterUnits="userSpaceOnUse" color-interpolation-filters="sRGB"><feFlood flood-opacity="0" result="BackgroundImageFix"/><feGaussianBlur in="BackgroundImage" stdDeviation="5"/><feComposite in2="SourceAlpha" operator="in" result="effect1_backgroundBlur"/><feColorMatrix in="SourceAlpha" values="0 0 0 0 0 0 0 0 0 0 0 0 0 0 0 0 0 0 127 0"/><feOffset dy="-2"/><feGaussianBlur stdDeviation="4"/><feColorMatrix values="0 0 0 0 0 0 0 0 0 0 0 0 0 0 0 0 0 0 0.1 0"/><feBlend in2="effect1_backgroundBlur" result="effect2_dropShadow"/><feBlend in="SourceGraphic" in2="effect2_dropShadow" result="shape"/><feColorMatrix in="SourceAlpha" values="0 0 0 0 0 0 0 0 0 0 0 0 0 0 0 0 0 0 127 0" result="hardAlpha"/><feOffset dy="-2"/><feGaussianBlur stdDeviation="3.5"/><feComposite in2="hardAlpha" operator="arithmetic" k2="-1" k3="1"/><feColorMatrix values="0 0 0 0 1 0 0 0 0 1 0 0 0 0 1 0 0 0 0.3 0"/><feBlend in2="shape" result="effect3_innerShadow"/></filter><linearGradient id="paint0_linear" x1="60.553" y1="45.948" x2="25.589" y2="45.948" gradientUnits="userSpaceOnUse"><stop stop-color="#0075FF"/><stop offset="1" stop-color="#5AC4FF"/></linearGradient></defs></svg>