<svg width="102" height="94" viewBox="0 0 102 94" fill="none" xmlns="http://www.w3.org/2000/svg">
<g filter="url(#filter0_bdi)">
<path d="M78.5 39.75C77.8096 39.75 77.25 40.3096 77.25 41C77.25 41.6904 77.8096 42.25 78.5 42.25V39.75ZM62.25 73C62.25 72.3096 61.6904 71.75 61 71.75C60.3096 71.75 59.75 72.3096 59.75 73H62.25ZM65.3681 85.1281L64.8006 86.2418L65.3681 85.1281ZM61.8719 81.6319L60.7582 82.1994L61.8719 81.6319ZM91.1281 81.6319L92.2418 82.1994L91.1281 81.6319ZM87.6319 85.1281L88.1994 86.2418L87.6319 85.1281ZM91.1281 45.3681L92.2418 44.8006L91.1281 45.3681ZM90.75 53.8V73.2H93.25V53.8H90.75ZM79.2 84.75H73.8V87.25H79.2V84.75ZM78.5 42.25H79.2V39.75H78.5V42.25ZM62.25 73.1968C62.25 73.1967 62.25 73.1965 62.25 73.1964C62.25 73.1963 62.25 73.1961 62.25 73.196C62.25 73.1959 62.25 73.1957 62.25 73.1956C62.25 73.1955 62.25 73.1954 62.25 73.1952C62.25 73.1951 62.25 73.195 62.25 73.1948C62.25 73.1947 62.25 73.1946 62.25 73.1944C62.25 73.1943 62.25 73.1942 62.25 73.1941C62.25 73.1939 62.25 73.1938 62.25 73.1937C62.25 73.1935 62.25 73.1934 62.25 73.1933C62.25 73.1931 62.25 73.193 62.25 73.1929C62.25 73.1928 62.25 73.1926 62.25 73.1925C62.25 73.1924 62.25 73.1922 62.25 73.1921C62.25 73.192 62.25 73.1918 62.25 73.1917C62.25 73.1916 62.25 73.1915 62.25 73.1913C62.25 73.1912 62.25 73.1911 62.25 73.1909C62.25 73.1908 62.25 73.1907 62.25 73.1905C62.25 73.1904 62.25 73.1903 62.25 73.1902C62.25 73.19 62.25 73.1899 62.25 73.1898C62.25 73.1896 62.25 73.1895 62.25 73.1894C62.25 73.1892 62.25 73.1891 62.25 73.189C62.25 73.1889 62.25 73.1887 62.25 73.1886C62.25 73.1885 62.25 73.1883 62.25 73.1882C62.25 73.1881 62.25 73.1879 62.25 73.1878C62.25 73.1877 62.25 73.1876 62.25 73.1874C62.25 73.1873 62.25 73.1872 62.25 73.187C62.25 73.1869 62.25 73.1868 62.25 73.1866C62.25 73.1865 62.25 73.1864 62.25 73.1863C62.25 73.1861 62.25 73.186 62.25 73.1859C62.25 73.1857 62.25 73.1856 62.25 73.1855C62.25 73.1853 62.25 73.1852 62.25 73.1851C62.25 73.185 62.25 73.1848 62.25 73.1847C62.25 73.1846 62.25 73.1844 62.25 73.1843C62.25 73.1842 62.25 73.184 62.25 73.1839C62.25 73.1838 62.25 73.1837 62.25 73.1835C62.25 73.1834 62.25 73.1833 62.25 73.1831C62.25 73.183 62.25 73.1829 62.25 73.1827C62.25 73.1826 62.25 73.1825 62.25 73.1824C62.25 73.1822 62.25 73.1821 62.25 73.182C62.25 73.1818 62.25 73.1817 62.25 73.1816C62.25 73.1814 62.25 73.1813 62.25 73.1812C62.25 73.1811 62.25 73.1809 62.25 73.1808C62.25 73.1807 62.25 73.1805 62.25 73.1804C62.25 73.1803 62.25 73.1801 62.25 73.18C62.25 73.1799 62.25 73.1798 62.25 73.1796C62.25 73.1795 62.25 73.1794 62.25 73.1792C62.25 73.1791 62.25 73.179 62.25 73.1789C62.25 73.1787 62.25 73.1786 62.25 73.1785C62.25 73.1783 62.25 73.1782 62.25 73.1781C62.25 73.1779 62.25 73.1778 62.25 73.1777C62.25 73.1776 62.25 73.1774 62.25 73.1773C62.25 73.1772 62.25 73.177 62.25 73.1769C62.25 73.1768 62.25 73.1766 62.25 73.1765C62.25 73.1764 62.25 73.1763 62.25 73.1761C62.25 73.176 62.25 73.1759 62.25 73.1757C62.25 73.1756 62.25 73.1755 62.25 73.1753C62.25 73.1752 62.25 73.1751 62.25 73.175C62.25 73.1748 62.25 73.1747 62.25 73.1746C62.25 73.1744 62.25 73.1743 62.25 73.1742C62.25 73.174 62.25 73.1739 62.25 73.1738C62.25 73.1737 62.25 73.1735 62.25 73.1734C62.25 73.1733 62.25 73.1731 62.25 73.173C62.25 73.1729 62.25 73.1728 62.25 73.1726C62.25 73.1725 62.25 73.1724 62.25 73.1722C62.25 73.1721 62.25 73.172 62.25 73.1718C62.25 73.1717 62.25 73.1716 62.25 73.1715C62.25 73.1713 62.25 73.1712 62.25 73.1711C62.25 73.1709 62.25 73.1708 62.25 73.1707C62.25 73.1705 62.25 73.1704 62.25 73.1703C62.25 73.1702 62.25 73.17 62.25 73.1699C62.25 73.1698 62.25 73.1696 62.25 73.1695C62.25 73.1694 62.25 73.1693 62.25 73.1691C62.25 73.169 62.25 73.1689 62.25 73.1687C62.25 73.1686 62.25 73.1685 62.25 73.1683C62.25 73.1682 62.25 73.1681 62.25 73.168C62.25 73.1678 62.25 73.1677 62.25 73.1676C62.25 73.1674 62.25 73.1673 62.25 73.1672C62.25 73.167 62.25 73.1669 62.25 73.1668C62.25 73.1667 62.25 73.1665 62.25 73.1664C62.25 73.1663 62.25 73.1661 62.25 73.166C62.25 73.1659 62.25 73.1658 62.25 73.1656C62.25 73.1655 62.25 73.1654 62.25 73.1652C62.25 73.1651 62.25 73.165 62.25 73.1648C62.25 73.1647 62.25 73.1646 62.25 73.1645C62.25 73.1643 62.25 73.1642 62.25 73.1641C62.25 73.1639 62.25 73.1638 62.25 73.1637C62.25 73.1636 62.25 73.1634 62.25 73.1633C62.25 73.1632 62.25 73.163 62.25 73.1629C62.25 73.1628 62.25 73.1626 62.25 73.1625C62.25 73.1624 62.25 73.1623 62.25 73.1621C62.25 73.162 62.25 73.1619 62.25 73.1617C62.25 73.1616 62.25 73.1615 62.25 73.1614C62.25 73.1612 62.25 73.1611 62.25 73.161C62.25 73.1608 62.25 73.1607 62.25 73.1606C62.25 73.1604 62.25 73.1603 62.25 73.1602C62.25 73.1601 62.25 73.1599 62.25 73.1598C62.25 73.1597 62.25 73.1595 62.25 73.1594C62.25 73.1593 62.25 73.1591 62.25 73.159C62.25 73.1589 62.25 73.1588 62.25 73.1586C62.25 73.1585 62.25 73.1584 62.25 73.1582C62.25 73.1581 62.25 73.158 62.25 73.1579C62.25 73.1577 62.25 73.1576 62.25 73.1575C62.25 73.1573 62.25 73.1572 62.25 73.1571C62.25 73.157 62.25 73.1568 62.25 73.1567C62.25 73.1566 62.25 73.1564 62.25 73.1563C62.25 73.1562 62.25 73.156 62.25 73.1559C62.25 73.1558 62.25 73.1557 62.25 73.1555C62.25 73.1554 62.25 73.1553 62.25 73.1551C62.25 73.155 62.25 73.1549 62.25 73.1548C62.25 73.1546 62.25 73.1545 62.25 73.1544C62.25 73.1542 62.25 73.1541 62.25 73.154C62.25 73.1538 62.25 73.1537 62.25 73.1536C62.25 73.1535 62.25 73.1533 62.25 73.1532C62.25 73.1531 62.25 73.1529 62.25 73.1528C62.25 73.1527 62.25 73.1526 62.25 73.1524C62.25 73.1523 62.25 73.1522 62.25 73.152C62.25 73.1519 62.25 73.1518 62.25 73.1516C62.25 73.1515 62.25 73.1514 62.25 73.1513C62.25 73.1511 62.25 73.151 62.25 73.1509C62.25 73.1507 62.25 73.1506 62.25 73.1505C62.25 73.1504 62.25 73.1502 62.25 73.1501C62.25 73.15 62.25 73.1498 62.25 73.1497C62.25 73.1496 62.25 73.1495 62.25 73.1493C62.25 73.1492 62.25 73.1491 62.25 73.1489C62.25 73.1488 62.25 73.1487 62.25 73.1485C62.25 73.1484 62.25 73.1483 62.25 73.1482C62.25 73.148 62.25 73.1479 62.25 73.1478C62.25 73.1476 62.25 73.1475 62.25 73.1474C62.25 73.1473 62.25 73.1471 62.25 73.147C62.25 73.1469 62.25 73.1467 62.25 73.1466C62.25 73.1465 62.25 73.1464 62.25 73.1462C62.25 73.1461 62.25 73.146 62.25 73.1458C62.25 73.1457 62.25 73.1456 62.25 73.1454C62.25 73.1453 62.25 73.1452 62.25 73.1451C62.25 73.1449 62.25 73.1448 62.25 73.1447C62.25 73.1445 62.25 73.1444 62.25 73.1443C62.25 73.1442 62.25 73.144 62.25 73.1439C62.25 73.1438 62.25 73.1436 62.25 73.1435C62.25 73.1434 62.25 73.1433 62.25 73.1431C62.25 73.143 62.25 73.1429 62.25 73.1427C62.25 73.1426 62.25 73.1425 62.25 73.1423C62.25 73.1422 62.25 73.1421 62.25 73.142C62.25 73.1418 62.25 73.1417 62.25 73.1416C62.25 73.1414 62.25 73.1413 62.25 73.1412C62.25 73.1411 62.25 73.1409 62.25 73.1408C62.25 73.1407 62.25 73.1405 62.25 73.1404C62.25 73.1403 62.25 73.1402 62.25 73.14C62.25 73.1399 62.25 73.1398 62.25 73.1396C62.25 73.1395 62.25 73.1394 62.25 73.1393C62.25 73.1391 62.25 73.139 62.25 73.1389C62.25 73.1387 62.25 73.1386 62.25 73.1385C62.25 73.1384 62.25 73.1382 62.25 73.1381C62.25 73.138 62.25 73.1378 62.25 73.1377C62.25 73.1376 62.25 73.1374 62.25 73.1373C62.25 73.1372 62.25 73.1371 62.25 73.1369C62.25 73.1368 62.25 73.1367 62.25 73.1365C62.25 73.1364 62.25 73.1363 62.25 73.1362C62.25 73.136 62.25 73.1359 62.25 73.1358C62.25 73.1356 62.25 73.1355 62.25 73.1354C62.25 73.1353 62.25 73.1351 62.25 73.135C62.25 73.1349 62.25 73.1347 62.25 73.1346C62.25 73.1345 62.25 73.1344 62.25 73.1342C62.25 73.1341 62.25 73.134 62.25 73.1338C62.25 73.1337 62.25 73.1336 62.25 73.1335C62.25 73.1333 62.25 73.1332 62.25 73.1331C62.25 73.1329 62.25 73.1328 62.25 73.1327C62.25 73.1325 62.25 73.1324 62.25 73.1323C62.25 73.1322 62.25 73.132 62.25 73.1319C62.25 73.1318 62.25 73.1316 62.25 73.1315C62.25 73.1314 62.25 73.1313 62.25 73.1311C62.25 73.131 62.25 73.1309 62.25 73.1307C62.25 73.1306 62.25 73.1305 62.25 73.1304C62.25 73.1302 62.25 73.1301 62.25 73.13C62.25 73.1298 62.25 73.1297 62.25 73.1296C62.25 73.1295 62.25 73.1293 62.25 73.1292C62.25 73.1291 62.25 73.1289 62.25 73.1288C62.25 73.1287 62.25 73.1286 62.25 73.1284C62.25 73.1283 62.25 73.1282 62.25 73.128C62.25 73.1279 62.25 73.1278 62.25 73.1277C62.25 73.1275 62.25 73.1274 62.25 73.1273C62.25 73.1271 62.25 73.127 62.25 73.1269C62.25 73.1268 62.25 73.1266 62.25 73.1265C62.25 73.1264 62.25 73.1262 62.25 73.1261C62.25 73.126 62.25 73.1259 62.25 73.1257C62.25 73.1256 62.25 73.1255 62.25 73.1253C62.25 73.1252 62.25 73.1251 62.25 73.125C62.25 73.1248 62.25 73.1247 62.25 73.1246C62.25 73.1244 62.25 73.1243 62.25 73.1242C62.25 73.1241 62.25 73.1239 62.25 73.1238C62.25 73.1237 62.25 73.1235 62.25 73.1234C62.25 73.1233 62.25 73.1231 62.25 73.123C62.25 73.1229 62.25 73.1228 62.25 73.1226C62.25 73.1225 62.25 73.1224 62.25 73.1222C62.25 73.1221 62.25 73.122 62.25 73.1219C62.25 73.1217 62.25 73.1216 62.25 73.1215C62.25 73.1213 62.25 73.1212 62.25 73.1211C62.25 73.121 62.25 73.1208 62.25 73.1207C62.25 73.1206 62.25 73.1204 62.25 73.1203C62.25 73.1202 62.25 73.1201 62.25 73.1199C62.25 73.1198 62.25 73.1197 62.25 73.1195C62.25 73.1194 62.25 73.1193 62.25 73.1192C62.25 73.119 62.25 73.1189 62.25 73.1188C62.25 73.1186 62.25 73.1185 62.25 73.1184C62.25 73.1183 62.25 73.1181 62.25 73.118C62.25 73.1179 62.25 73.1177 62.25 73.1176C62.25 73.1175 62.25 73.1174 62.25 73.1172C62.25 73.1171 62.25 73.117 62.25 73.1168C62.25 73.1167 62.25 73.1166 62.25 73.1165C62.25 73.1163 62.25 73.1162 62.25 73.1161C62.25 73.1159 62.25 73.1158 62.25 73.1157C62.25 73.1156 62.25 73.1154 62.25 73.1153C62.25 73.1152 62.25 73.1151 62.25 73.1149C62.25 73.1148 62.25 73.1147 62.25 73.1145C62.25 73.1144 62.25 73.1143 62.25 73.1142C62.25 73.114 62.25 73.1139 62.25 73.1138C62.25 73.1136 62.25 73.1135 62.25 73.1134C62.25 73.1133 62.25 73.1131 62.25 73.113C62.25 73.1129 62.25 73.1127 62.25 73.1126C62.25 73.1125 62.25 73.1124 62.25 73.1122C62.25 73.1121 62.25 73.112 62.25 73.1118C62.25 73.1117 62.25 73.1116 62.25 73.1115C62.25 73.1113 62.25 73.1112 62.25 73.1111C62.25 73.1109 62.25 73.1108 62.25 73.1107C62.25 73.1106 62.25 73.1104 62.25 73.1103C62.25 73.1102 62.25 73.11 62.25 73.1099C62.25 73.1098 62.25 73.1097 62.25 73.1095C62.25 73.1094 62.25 73.1093 62.25 73.1091C62.25 73.109 62.25 73.1089 62.25 73.1088C62.25 73.1086 62.25 73.1085 62.25 73.1084C62.25 73.1082 62.25 73.1081 62.25 73.108C62.25 73.1079 62.25 73.1077 62.25 73.1076C62.25 73.1075 62.25 73.1073 62.25 73.1072C62.25 73.1071 62.25 73.107 62.25 73.1068C62.25 73.1067 62.25 73.1066 62.25 73.1064C62.25 73.1063 62.25 73.1062 62.25 73.1061C62.25 73.1059 62.25 73.1058 62.25 73.1057C62.25 73.1055 62.25 73.1054 62.25 73.1053C62.25 73.1052 62.25 73.105 62.25 73.1049C62.25 73.1048 62.25 73.1047 62.25 73.1045C62.25 73.1044 62.25 73.1043 62.25 73.1041C62.25 73.104 62.25 73.1039 62.25 73.1038C62.25 73.1036 62.25 73.1035 62.25 73.1034C62.25 73.1032 62.25 73.1031 62.25 73.103C62.25 73.1029 62.25 73.1027 62.25 73.1026C62.25 73.1025 62.25 73.1023 62.25 73.1022C62.25 73.1021 62.25 73.102 62.25 73.1018C62.25 73.1017 62.25 73.1016 62.25 73.1014C62.25 73.1013 62.25 73.1012 62.25 73.1011C62.25 73.1009 62.25 73.1008 62.25 73.1007C62.25 73.1005 62.25 73.1004 62.25 73.1003C62.25 73.1002 62.25 73.1 62.25 73.0999C62.25 73.0998 62.25 73.0997 62.25 73.0995C62.25 73.0994 62.25 73.0993 62.25 73.0991C62.25 73.099 62.25 73.0989 62.25 73.0988C62.25 73.0986 62.25 73.0985 62.25 73.0984C62.25 73.0982 62.25 73.0981 62.25 73.098C62.25 73.0979 62.25 73.0977 62.25 73.0976C62.25 73.0975 62.25 73.0973 62.25 73.0972C62.25 73.0971 62.25 73.097 62.25 73.0968C62.25 73.0967 62.25 73.0966 62.25 73.0964C62.25 73.0963 62.25 73.0962 62.25 73.0961C62.25 73.0959 62.25 73.0958 62.25 73.0957C62.25 73.0956 62.25 73.0954 62.25 73.0953C62.25 73.0952 62.25 73.095 62.25 73.0949C62.25 73.0948 62.25 73.0947 62.25 73.0945C62.25 73.0944 62.25 73.0943 62.25 73.0941C62.25 73.094 62.25 73.0939 62.25 73.0938C62.25 73.0936 62.25 73.0935 62.25 73.0934C62.25 73.0932 62.25 73.0931 62.25 73.093C62.25 73.0929 62.25 73.0927 62.25 73.0926C62.25 73.0925 62.25 73.0924 62.25 73.0922C62.25 73.0921 62.25 73.092 62.25 73.0918C62.25 73.0917 62.25 73.0916 62.25 73.0915C62.25 73.0913 62.25 73.0912 62.25 73.0911C62.25 73.0909 62.25 73.0908 62.25 73.0907C62.25 73.0906 62.25 73.0904 62.25 73.0903C62.25 73.0902 62.25 73.09 62.25 73.0899C62.25 73.0898 62.25 73.0897 62.25 73.0895C62.25 73.0894 62.25 73.0893 62.25 73.0891C62.25 73.089 62.25 73.0889 62.25 73.0888C62.25 73.0886 62.25 73.0885 62.25 73.0884C62.25 73.0883 62.25 73.0881 62.25 73.088C62.25 73.0879 62.25 73.0877 62.25 73.0876C62.25 73.0875 62.25 73.0874 62.25 73.0872C62.25 73.0871 62.25 73.087 62.25 73.0868C62.25 73.0867 62.25 73.0866 62.25 73.0865C62.25 73.0863 62.25 73.0862 62.25 73.0861C62.25 73.086 62.25 73.0858 62.25 73.0857C62.25 73.0856 62.25 73.0854 62.25 73.0853C62.25 73.0852 62.25 73.0851 62.25 73.0849C62.25 73.0848 62.25 73.0847 62.25 73.0845C62.25 73.0844 62.25 73.0843 62.25 73.0842C62.25 73.084 62.25 73.0839 62.25 73.0838C62.25 73.0836 62.25 73.0835 62.25 73.0834C62.25 73.0833 62.25 73.0831 62.25 73.083C62.25 73.0829 62.25 73.0828 62.25 73.0826C62.25 73.0825 62.25 73.0824 62.25 73.0822C62.25 73.0821 62.25 73.082 62.25 73.0819C62.25 73.0817 62.25 73.0816 62.25 73.0815C62.25 73.0813 62.25 73.0812 62.25 73.0811C62.25 73.081 62.25 73.0808 62.25 73.0807C62.25 73.0806 62.25 73.0805 62.25 73.0803C62.25 73.0802 62.25 73.0801 62.25 73.0799C62.25 73.0798 62.25 73.0797 62.25 73.0796C62.25 73.0794 62.25 73.0793 62.25 73.0792C62.25 73.0791 62.25 73.0789 62.25 73.0788C62.25 73.0787 62.25 73.0785 62.25 73.0784C62.25 73.0783 62.25 73.0782 62.25 73.078C62.25 73.0779 62.25 73.0778 62.25 73.0776C62.25 73.0775 62.25 73.0774 62.25 73.0773C62.25 73.0771 62.25 73.077 62.25 73.0769C62.25 73.0768 62.25 73.0766 62.25 73.0765C62.25 73.0764 62.25 73.0762 62.25 73.0761C62.25 73.076 62.25 73.0759 62.25 73.0757C62.25 73.0756 62.25 73.0755 62.25 73.0753C62.25 73.0752 62.25 73.0751 62.25 73.075C62.25 73.0748 62.25 73.0747 62.25 73.0746C62.25 73.0745 62.25 73.0743 62.25 73.0742C62.25 73.0741 62.25 73.0739 62.25 73.0738C62.25 73.0737 62.25 73.0736 62.25 73.0734C62.25 73.0733 62.25 73.0732 62.25 73.0731C62.25 73.0729 62.25 73.0728 62.25 73.0727C62.25 73.0725 62.25 73.0724 62.25 73.0723C62.25 73.0722 62.25 73.072 62.25 73.0719C62.25 73.0718 62.25 73.0716 62.25 73.0715C62.25 73.0714 62.25 73.0713 62.25 73.0711C62.25 73.071 62.25 73.0709 62.25 73.0708C62.25 73.0706 62.25 73.0705 62.25 73.0704C62.25 73.0702 62.25 73.0701 62.25 73.07C62.25 73.0699 62.25 73.0697 62.25 73.0696C62.25 73.0695 62.25 73.0694 62.25 73.0692C62.25 73.0691 62.25 73.069 62.25 73.0688C62.25 73.0687 62.25 73.0686 62.25 73.0685C62.25 73.0683 62.25 73.0682 62.25 73.0681C62.25 73.0679 62.25 73.0678 62.25 73.0677C62.25 73.0676 62.25 73.0674 62.25 73.0673C62.25 73.0672 62.25 73.0671 62.25 73.0669C62.25 73.0668 62.25 73.0667 62.25 73.0665C62.25 73.0664 62.25 73.0663 62.25 73.0662C62.25 73.066 62.25 73.0659 62.25 73.0658C62.25 73.0657 62.25 73.0655 62.25 73.0654C62.25 73.0653 62.25 73.0651 62.25 73.065C62.25 73.0649 62.25 73.0648 62.25 73.0646C62.25 73.0645 62.25 73.0644 62.25 73.0643C62.25 73.0641 62.25 73.064 62.25 73.0639C62.25 73.0637 62.25 73.0636 62.25 73.0635C62.25 73.0634 62.25 73.0632 62.25 73.0631C62.25 73.063 62.25 73.0629 62.25 73.0627C62.25 73.0626 62.25 73.0625 62.25 73.0623C62.25 73.0622 62.25 73.0621 62.25 73.062C62.25 73.0618 62.25 73.0617 62.25 73.0616C62.25 73.0614 62.25 73.0613 62.25 73.0612C62.25 73.0611 62.25 73.0609 62.25 73.0608C62.25 73.0607 62.25 73.0606 62.25 73.0604C62.25 73.0603 62.25 73.0602 62.25 73.06C62.25 73.0599 62.25 73.0598 62.25 73.0597C62.25 73.0595 62.25 73.0594 62.25 73.0593C62.25 73.0592 62.25 73.059 62.25 73.0589C62.25 73.0588 62.25 73.0586 62.25 73.0585C62.25 73.0584 62.25 73.0583 62.25 73.0581C62.25 73.058 62.25 73.0579 62.25 73.0578C62.25 73.0576 62.25 73.0575 62.25 73.0574C62.25 73.0572 62.25 73.0571 62.25 73.057C62.25 73.0569 62.25 73.0567 62.25 73.0566C62.25 73.0565 62.25 73.0564 62.25 73.0562C62.25 73.0561 62.25 73.056 62.25 73.0558C62.25 73.0557 62.25 73.0556 62.25 73.0555C62.25 73.0553 62.25 73.0552 62.25 73.0551C62.25 73.055 62.25 73.0548 62.25 73.0547C62.25 73.0546 62.25 73.0544 62.25 73.0543C62.25 73.0542 62.25 73.0541 62.25 73.0539C62.25 73.0538 62.25 73.0537 62.25 73.0536C62.25 73.0534 62.25 73.0533 62.25 73.0532C62.25 73.053 62.25 73.0529 62.25 73.0528C62.25 73.0527 62.25 73.0525 62.25 73.0524C62.25 73.0523 62.25 73.0522 62.25 73.052C62.25 73.0519 62.25 73.0518 62.25 73.0517C62.25 73.0515 62.25 73.0514 62.25 73.0513C62.25 73.0511 62.25 73.051 62.25 73.0509C62.25 73.0508 62.25 73.0506 62.25 73.0505C62.25 73.0504 62.25 73.0503 62.25 73.0501C62.25 73.05 62.25 73.0499 62.25 73.0497C62.25 73.0496 62.25 73.0495 62.25 73.0494C62.25 73.0492 62.25 73.0491 62.25 73.049C62.25 73.0489 62.25 73.0487 62.25 73.0486C62.25 73.0485 62.25 73.0483 62.25 73.0482C62.25 73.0481 62.25 73.048 62.25 73.0478C62.25 73.0477 62.25 73.0476 62.25 73.0475C62.25 73.0473 62.25 73.0472 62.25 73.0471C62.25 73.0469 62.25 73.0468 62.25 73.0467C62.25 73.0466 62.25 73.0464 62.25 73.0463C62.25 73.0462 62.25 73.0461 62.25 73.0459C62.25 73.0458 62.25 73.0457 62.25 73.0456C62.25 73.0454 62.25 73.0453 62.25 73.0452C62.25 73.045 62.25 73.0449 62.25 73.0448C62.25 73.0447 62.25 73.0445 62.25 73.0444C62.25 73.0443 62.25 73.0442 62.25 73.044C62.25 73.0439 62.25 73.0438 62.25 73.0436C62.25 73.0435 62.25 73.0434 62.25 73.0433C62.25 73.0431 62.25 73.043 62.25 73.0429C62.25 73.0428 62.25 73.0426 62.25 73.0425C62.25 73.0424 62.25 73.0422 62.25 73.0421C62.25 73.042 62.25 73.0419 62.25 73.0417C62.25 73.0416 62.25 73.0415 62.25 73.0414C62.25 73.0412 62.25 73.0411 62.25 73.041C62.25 73.0409 62.25 73.0407 62.25 73.0406C62.25 73.0405 62.25 73.0403 62.25 73.0402C62.25 73.0401 62.25 73.04 62.25 73.0398C62.25 73.0397 62.25 73.0396 62.25 73.0395C62.25 73.0393 62.25 73.0392 62.25 73.0391C62.25 73.0389 62.25 73.0388 62.25 73.0387C62.25 73.0386 62.25 73.0384 62.25 73.0383C62.25 73.0382 62.25 73.0381 62.25 73.0379C62.25 73.0378 62.25 73.0377 62.25 73.0376C62.25 73.0374 62.25 73.0373 62.25 73.0372C62.25 73.037 62.25 73.0369 62.25 73.0368C62.25 73.0367 62.25 73.0365 62.25 73.0364C62.25 73.0363 62.25 73.0362 62.25 73.036C62.25 73.0359 62.25 73.0358 62.25 73.0357C62.25 73.0355 62.25 73.0354 62.25 73.0353C62.25 73.0351 62.25 73.035 62.25 73.0349C62.25 73.0348 62.25 73.0346 62.25 73.0345C62.25 73.0344 62.25 73.0343 62.25 73.0341C62.25 73.034 62.25 73.0339 62.25 73.0337C62.25 73.0336 62.25 73.0335 62.25 73.0334C62.25 73.0332 62.25 73.0331 62.25 73.033C62.25 73.0329 62.25 73.0327 62.25 73.0326C62.25 73.0325 62.25 73.0324 62.25 73.0322C62.25 73.0321 62.25 73.032 62.25 73.0318C62.25 73.0317 62.25 73.0316 62.25 73.0315C62.25 73.0313 62.25 73.0312 62.25 73.0311C62.25 73.031 62.25 73.0308 62.25 73.0307C62.25 73.0306 62.25 73.0305 62.25 73.0303C62.25 73.0302 62.25 73.0301 62.25 73.0299C62.25 73.0298 62.25 73.0297 62.25 73.0296C62.25 73.0294 62.25 73.0293 62.25 73.0292C62.25 73.0291 62.25 73.0289 62.25 73.0288C62.25 73.0287 62.25 73.0286 62.25 73.0284C62.25 73.0283 62.25 73.0282 62.25 73.028C62.25 73.0279 62.25 73.0278 62.25 73.0277C62.25 73.0275 62.25 73.0274 62.25 73.0273C62.25 73.0272 62.25 73.027 62.25 73.0269C62.25 73.0268 62.25 73.0267 62.25 73.0265C62.25 73.0264 62.25 73.0263 62.25 73.0261C62.25 73.026 62.25 73.0259 62.25 73.0258C62.25 73.0256 62.25 73.0255 62.25 73.0254C62.25 73.0253 62.25 73.0251 62.25 73.025C62.25 73.0249 62.25 73.0248 62.25 73.0246C62.25 73.0245 62.25 73.0244 62.25 73.0243C62.25 73.0241 62.25 73.024 62.25 73.0239C62.25 73.0237 62.25 73.0236 62.25 73.0235C62.25 73.0234 62.25 73.0232 62.25 73.0231C62.25 73.023 62.25 73.0229 62.25 73.0227C62.25 73.0226 62.25 73.0225 62.25 73.0224C62.25 73.0222 62.25 73.0221 62.25 73.022C62.25 73.0218 62.25 73.0217 62.25 73.0216C62.25 73.0215 62.25 73.0213 62.25 73.0212C62.25 73.0211 62.25 73.021 62.25 73.0208C62.25 73.0207 62.25 73.0206 62.25 73.0205C62.25 73.0203 62.25 73.0202 62.25 73.0201C62.25 73.0199 62.25 73.0198 62.25 73.0197C62.25 73.0196 62.25 73.0194 62.25 73.0193C62.25 73.0192 62.25 73.0191 62.25 73.0189C62.25 73.0188 62.25 73.0187 62.25 73.0186C62.25 73.0184 62.25 73.0183 62.25 73.0182C62.25 73.0181 62.25 73.0179 62.25 73.0178C62.25 73.0177 62.25 73.0175 62.25 73.0174C62.25 73.0173 62.25 73.0172 62.25 73.017C62.25 73.0169 62.25 73.0168 62.25 73.0167C62.25 73.0165 62.25 73.0164 62.25 73.0163C62.25 73.0162 62.25 73.016 62.25 73.0159C62.25 73.0158 62.25 73.0156 62.25 73.0155C62.25 73.0154 62.25 73.0153 62.25 73.0151C62.25 73.015 62.25 73.0149 62.25 73.0148C62.25 73.0146 62.25 73.0145 62.25 73.0144C62.25 73.0143 62.25 73.0141 62.25 73.014C62.25 73.0139 62.25 73.0138 62.25 73.0136C62.25 73.0135 62.25 73.0134 62.25 73.0132C62.25 73.0131 62.25 73.013 62.25 73.0129C62.25 73.0127 62.25 73.0126 62.25 73.0125C62.25 73.0124 62.25 73.0122 62.25 73.0121C62.25 73.012 62.25 73.0119 62.25 73.0117C62.25 73.0116 62.25 73.0115 62.25 73.0114C62.25 73.0112 62.25 73.0111 62.25 73.011C62.25 73.0108 62.25 73.0107 62.25 73.0106C62.25 73.0105 62.25 73.0103 62.25 73.0102C62.25 73.0101 62.25 73.01 62.25 73.0098C62.25 73.0097 62.25 73.0096 62.25 73.0095C62.25 73.0093 62.25 73.0092 62.25 73.0091C62.25 73.009 62.25 73.0088 62.25 73.0087C62.25 73.0086 62.25 73.0084 62.25 73.0083C62.25 73.0082 62.25 73.0081 62.25 73.0079C62.25 73.0078 62.25 73.0077 62.25 73.0076C62.25 73.0074 62.25 73.0073 62.25 73.0072C62.25 73.0071 62.25 73.0069 62.25 73.0068C62.25 73.0067 62.25 73.0066 62.25 73.0064C62.25 73.0063 62.25 73.0062 62.25 73.0061C62.25 73.0059 62.25 73.0058 62.25 73.0057C62.25 73.0055 62.25 73.0054 62.25 73.0053C62.25 73.0052 62.25 73.005 62.25 73.0049C62.25 73.0048 62.25 73.0047 62.25 73.0045C62.25 73.0044 62.25 73.0043 62.25 73.0042C62.25 73.004 62.25 73.0039 62.25 73.0038C62.25 73.0037 62.25 73.0035 62.25 73.0034C62.25 73.0033 62.25 73.0032 62.25 73.003C62.25 73.0029 62.25 73.0028 62.25 73.0026C62.25 73.0025 62.25 73.0024 62.25 73.0023C62.25 73.0021 62.25 73.002 62.25 73.0019C62.25 73.0018 62.25 73.0016 62.25 73.0015C62.25 73.0014 62.25 73.0013 62.25 73.0011C62.25 73.001 62.25 73.0009 62.25 73.0008C62.25 73.0006 62.25 73.0005 62.25 73.0004C62.25 73.0003 62.25 73.0001 62.25 73H59.75C59.75 73.0001 59.75 73.0003 59.75 73.0004C59.75 73.0005 59.75 73.0006 59.75 73.0008C59.75 73.0009 59.75 73.001 59.75 73.0011C59.75 73.0013 59.75 73.0014 59.75 73.0015C59.75 73.0016 59.75 73.0018 59.75 73.0019C59.75 73.002 59.75 73.0021 59.75 73.0023C59.75 73.0024 59.75 73.0025 59.75 73.0026C59.75 73.0028 59.75 73.0029 59.75 73.003C59.75 73.0032 59.75 73.0033 59.75 73.0034C59.75 73.0035 59.75 73.0037 59.75 73.0038C59.75 73.0039 59.75 73.004 59.75 73.0042C59.75 73.0043 59.75 73.0044 59.75 73.0045C59.75 73.0047 59.75 73.0048 59.75 73.0049C59.75 73.005 59.75 73.0052 59.75 73.0053C59.75 73.0054 59.75 73.0055 59.75 73.0057C59.75 73.0058 59.75 73.0059 59.75 73.0061C59.75 73.0062 59.75 73.0063 59.75 73.0064C59.75 73.0066 59.75 73.0067 59.75 73.0068C59.75 73.0069 59.75 73.0071 59.75 73.0072C59.75 73.0073 59.75 73.0074 59.75 73.0076C59.75 73.0077 59.75 73.0078 59.75 73.0079C59.75 73.0081 59.75 73.0082 59.75 73.0083C59.75 73.0084 59.75 73.0086 59.75 73.0087C59.75 73.0088 59.75 73.009 59.75 73.0091C59.75 73.0092 59.75 73.0093 59.75 73.0095C59.75 73.0096 59.75 73.0097 59.75 73.0098C59.75 73.01 59.75 73.0101 59.75 73.0102C59.75 73.0103 59.75 73.0105 59.75 73.0106C59.75 73.0107 59.75 73.0108 59.75 73.011C59.75 73.0111 59.75 73.0112 59.75 73.0114C59.75 73.0115 59.75 73.0116 59.75 73.0117C59.75 73.0119 59.75 73.012 59.75 73.0121C59.75 73.0122 59.75 73.0124 59.75 73.0125C59.75 73.0126 59.75 73.0127 59.75 73.0129C59.75 73.013 59.75 73.0131 59.75 73.0132C59.75 73.0134 59.75 73.0135 59.75 73.0136C59.75 73.0138 59.75 73.0139 59.75 73.014C59.75 73.0141 59.75 73.0143 59.75 73.0144C59.75 73.0145 59.75 73.0146 59.75 73.0148C59.75 73.0149 59.75 73.015 59.75 73.0151C59.75 73.0153 59.75 73.0154 59.75 73.0155C59.75 73.0156 59.75 73.0158 59.75 73.0159C59.75 73.016 59.75 73.0162 59.75 73.0163C59.75 73.0164 59.75 73.0165 59.75 73.0167C59.75 73.0168 59.75 73.0169 59.75 73.017C59.75 73.0172 59.75 73.0173 59.75 73.0174C59.75 73.0175 59.75 73.0177 59.75 73.0178C59.75 73.0179 59.75 73.0181 59.75 73.0182C59.75 73.0183 59.75 73.0184 59.75 73.0186C59.75 73.0187 59.75 73.0188 59.75 73.0189C59.75 73.0191 59.75 73.0192 59.75 73.0193C59.75 73.0194 59.75 73.0196 59.75 73.0197C59.75 73.0198 59.75 73.0199 59.75 73.0201C59.75 73.0202 59.75 73.0203 59.75 73.0205C59.75 73.0206 59.75 73.0207 59.75 73.0208C59.75 73.021 59.75 73.0211 59.75 73.0212C59.75 73.0213 59.75 73.0215 59.75 73.0216C59.75 73.0217 59.75 73.0218 59.75 73.022C59.75 73.0221 59.75 73.0222 59.75 73.0224C59.75 73.0225 59.75 73.0226 59.75 73.0227C59.75 73.0229 59.75 73.023 59.75 73.0231C59.75 73.0232 59.75 73.0234 59.75 73.0235C59.75 73.0236 59.75 73.0237 59.75 73.0239C59.75 73.024 59.75 73.0241 59.75 73.0243C59.75 73.0244 59.75 73.0245 59.75 73.0246C59.75 73.0248 59.75 73.0249 59.75 73.025C59.75 73.0251 59.75 73.0253 59.75 73.0254C59.75 73.0255 59.75 73.0256 59.75 73.0258C59.75 73.0259 59.75 73.026 59.75 73.0261C59.75 73.0263 59.75 73.0264 59.75 73.0265C59.75 73.0267 59.75 73.0268 59.75 73.0269C59.75 73.027 59.75 73.0272 59.75 73.0273C59.75 73.0274 59.75 73.0275 59.75 73.0277C59.75 73.0278 59.75 73.0279 59.75 73.028C59.75 73.0282 59.75 73.0283 59.75 73.0284C59.75 73.0286 59.75 73.0287 59.75 73.0288C59.75 73.0289 59.75 73.0291 59.75 73.0292C59.75 73.0293 59.75 73.0294 59.75 73.0296C59.75 73.0297 59.75 73.0298 59.75 73.0299C59.75 73.0301 59.75 73.0302 59.75 73.0303C59.75 73.0305 59.75 73.0306 59.75 73.0307C59.75 73.0308 59.75 73.031 59.75 73.0311C59.75 73.0312 59.75 73.0313 59.75 73.0315C59.75 73.0316 59.75 73.0317 59.75 73.0318C59.75 73.032 59.75 73.0321 59.75 73.0322C59.75 73.0324 59.75 73.0325 59.75 73.0326C59.75 73.0327 59.75 73.0329 59.75 73.033C59.75 73.0331 59.75 73.0332 59.75 73.0334C59.75 73.0335 59.75 73.0336 59.75 73.0337C59.75 73.0339 59.75 73.034 59.75 73.0341C59.75 73.0343 59.75 73.0344 59.75 73.0345C59.75 73.0346 59.75 73.0348 59.75 73.0349C59.75 73.035 59.75 73.0351 59.75 73.0353C59.75 73.0354 59.75 73.0355 59.75 73.0357C59.75 73.0358 59.75 73.0359 59.75 73.036C59.75 73.0362 59.75 73.0363 59.75 73.0364C59.75 73.0365 59.75 73.0367 59.75 73.0368C59.75 73.0369 59.75 73.037 59.75 73.0372C59.75 73.0373 59.75 73.0374 59.75 73.0376C59.75 73.0377 59.75 73.0378 59.75 73.0379C59.75 73.0381 59.75 73.0382 59.75 73.0383C59.75 73.0384 59.75 73.0386 59.75 73.0387C59.75 73.0388 59.75 73.0389 59.75 73.0391C59.75 73.0392 59.75 73.0393 59.75 73.0395C59.75 73.0396 59.75 73.0397 59.75 73.0398C59.75 73.04 59.75 73.0401 59.75 73.0402C59.75 73.0403 59.75 73.0405 59.75 73.0406C59.75 73.0407 59.75 73.0409 59.75 73.041C59.75 73.0411 59.75 73.0412 59.75 73.0414C59.75 73.0415 59.75 73.0416 59.75 73.0417C59.75 73.0419 59.75 73.042 59.75 73.0421C59.75 73.0422 59.75 73.0424 59.75 73.0425C59.75 73.0426 59.75 73.0428 59.75 73.0429C59.75 73.043 59.75 73.0431 59.75 73.0433C59.75 73.0434 59.75 73.0435 59.75 73.0436C59.75 73.0438 59.75 73.0439 59.75 73.044C59.75 73.0442 59.75 73.0443 59.75 73.0444C59.75 73.0445 59.75 73.0447 59.75 73.0448C59.75 73.0449 59.75 73.045 59.75 73.0452C59.75 73.0453 59.75 73.0454 59.75 73.0456C59.75 73.0457 59.75 73.0458 59.75 73.0459C59.75 73.0461 59.75 73.0462 59.75 73.0463C59.75 73.0464 59.75 73.0466 59.75 73.0467C59.75 73.0468 59.75 73.0469 59.75 73.0471C59.75 73.0472 59.75 73.0473 59.75 73.0475C59.75 73.0476 59.75 73.0477 59.75 73.0478C59.75 73.048 59.75 73.0481 59.75 73.0482C59.75 73.0483 59.75 73.0485 59.75 73.0486C59.75 73.0487 59.75 73.0489 59.75 73.049C59.75 73.0491 59.75 73.0492 59.75 73.0494C59.75 73.0495 59.75 73.0496 59.75 73.0497C59.75 73.0499 59.75 73.05 59.75 73.0501C59.75 73.0503 59.75 73.0504 59.75 73.0505C59.75 73.0506 59.75 73.0508 59.75 73.0509C59.75 73.051 59.75 73.0511 59.75 73.0513C59.75 73.0514 59.75 73.0515 59.75 73.0517C59.75 73.0518 59.75 73.0519 59.75 73.052C59.75 73.0522 59.75 73.0523 59.75 73.0524C59.75 73.0525 59.75 73.0527 59.75 73.0528C59.75 73.0529 59.75 73.053 59.75 73.0532C59.75 73.0533 59.75 73.0534 59.75 73.0536C59.75 73.0537 59.75 73.0538 59.75 73.0539C59.75 73.0541 59.75 73.0542 59.75 73.0543C59.75 73.0544 59.75 73.0546 59.75 73.0547C59.75 73.0548 59.75 73.055 59.75 73.0551C59.75 73.0552 59.75 73.0553 59.75 73.0555C59.75 73.0556 59.75 73.0557 59.75 73.0558C59.75 73.056 59.75 73.0561 59.75 73.0562C59.75 73.0564 59.75 73.0565 59.75 73.0566C59.75 73.0567 59.75 73.0569 59.75 73.057C59.75 73.0571 59.75 73.0572 59.75 73.0574C59.75 73.0575 59.75 73.0576 59.75 73.0578C59.75 73.0579 59.75 73.058 59.75 73.0581C59.75 73.0583 59.75 73.0584 59.75 73.0585C59.75 73.0586 59.75 73.0588 59.75 73.0589C59.75 73.059 59.75 73.0592 59.75 73.0593C59.75 73.0594 59.75 73.0595 59.75 73.0597C59.75 73.0598 59.75 73.0599 59.75 73.06C59.75 73.0602 59.75 73.0603 59.75 73.0604C59.75 73.0606 59.75 73.0607 59.75 73.0608C59.75 73.0609 59.75 73.0611 59.75 73.0612C59.75 73.0613 59.75 73.0614 59.75 73.0616C59.75 73.0617 59.75 73.0618 59.75 73.062C59.75 73.0621 59.75 73.0622 59.75 73.0623C59.75 73.0625 59.75 73.0626 59.75 73.0627C59.75 73.0629 59.75 73.063 59.75 73.0631C59.75 73.0632 59.75 73.0634 59.75 73.0635C59.75 73.0636 59.75 73.0637 59.75 73.0639C59.75 73.064 59.75 73.0641 59.75 73.0643C59.75 73.0644 59.75 73.0645 59.75 73.0646C59.75 73.0648 59.75 73.0649 59.75 73.065C59.75 73.0651 59.75 73.0653 59.75 73.0654C59.75 73.0655 59.75 73.0657 59.75 73.0658C59.75 73.0659 59.75 73.066 59.75 73.0662C59.75 73.0663 59.75 73.0664 59.75 73.0665C59.75 73.0667 59.75 73.0668 59.75 73.0669C59.75 73.0671 59.75 73.0672 59.75 73.0673C59.75 73.0674 59.75 73.0676 59.75 73.0677C59.75 73.0678 59.75 73.0679 59.75 73.0681C59.75 73.0682 59.75 73.0683 59.75 73.0685C59.75 73.0686 59.75 73.0687 59.75 73.0688C59.75 73.069 59.75 73.0691 59.75 73.0692C59.75 73.0694 59.75 73.0695 59.75 73.0696C59.75 73.0697 59.75 73.0699 59.75 73.07C59.75 73.0701 59.75 73.0702 59.75 73.0704C59.75 73.0705 59.75 73.0706 59.75 73.0708C59.75 73.0709 59.75 73.071 59.75 73.0711C59.75 73.0713 59.75 73.0714 59.75 73.0715C59.75 73.0716 59.75 73.0718 59.75 73.0719C59.75 73.072 59.75 73.0722 59.75 73.0723C59.75 73.0724 59.75 73.0725 59.75 73.0727C59.75 73.0728 59.75 73.0729 59.75 73.0731C59.75 73.0732 59.75 73.0733 59.75 73.0734C59.75 73.0736 59.75 73.0737 59.75 73.0738C59.75 73.0739 59.75 73.0741 59.75 73.0742C59.75 73.0743 59.75 73.0745 59.75 73.0746C59.75 73.0747 59.75 73.0748 59.75 73.075C59.75 73.0751 59.75 73.0752 59.75 73.0753C59.75 73.0755 59.75 73.0756 59.75 73.0757C59.75 73.0759 59.75 73.076 59.75 73.0761C59.75 73.0762 59.75 73.0764 59.75 73.0765C59.75 73.0766 59.75 73.0768 59.75 73.0769C59.75 73.077 59.75 73.0771 59.75 73.0773C59.75 73.0774 59.75 73.0775 59.75 73.0776C59.75 73.0778 59.75 73.0779 59.75 73.078C59.75 73.0782 59.75 73.0783 59.75 73.0784C59.75 73.0785 59.75 73.0787 59.75 73.0788C59.75 73.0789 59.75 73.0791 59.75 73.0792C59.75 73.0793 59.75 73.0794 59.75 73.0796C59.75 73.0797 59.75 73.0798 59.75 73.0799C59.75 73.0801 59.75 73.0802 59.75 73.0803C59.75 73.0805 59.75 73.0806 59.75 73.0807C59.75 73.0808 59.75 73.081 59.75 73.0811C59.75 73.0812 59.75 73.0813 59.75 73.0815C59.75 73.0816 59.75 73.0817 59.75 73.0819C59.75 73.082 59.75 73.0821 59.75 73.0822C59.75 73.0824 59.75 73.0825 59.75 73.0826C59.75 73.0828 59.75 73.0829 59.75 73.083C59.75 73.0831 59.75 73.0833 59.75 73.0834C59.75 73.0835 59.75 73.0836 59.75 73.0838C59.75 73.0839 59.75 73.084 59.75 73.0842C59.75 73.0843 59.75 73.0844 59.75 73.0845C59.75 73.0847 59.75 73.0848 59.75 73.0849C59.75 73.0851 59.75 73.0852 59.75 73.0853C59.75 73.0854 59.75 73.0856 59.75 73.0857C59.75 73.0858 59.75 73.086 59.75 73.0861C59.75 73.0862 59.75 73.0863 59.75 73.0865C59.75 73.0866 59.75 73.0867 59.75 73.0868C59.75 73.087 59.75 73.0871 59.75 73.0872C59.75 73.0874 59.75 73.0875 59.75 73.0876C59.75 73.0877 59.75 73.0879 59.75 73.088C59.75 73.0881 59.75 73.0883 59.75 73.0884C59.75 73.0885 59.75 73.0886 59.75 73.0888C59.75 73.0889 59.75 73.089 59.75 73.0891C59.75 73.0893 59.75 73.0894 59.75 73.0895C59.75 73.0897 59.75 73.0898 59.75 73.0899C59.75 73.09 59.75 73.0902 59.75 73.0903C59.75 73.0904 59.75 73.0906 59.75 73.0907C59.75 73.0908 59.75 73.0909 59.75 73.0911C59.75 73.0912 59.75 73.0913 59.75 73.0915C59.75 73.0916 59.75 73.0917 59.75 73.0918C59.75 73.092 59.75 73.0921 59.75 73.0922C59.75 73.0924 59.75 73.0925 59.75 73.0926C59.75 73.0927 59.75 73.0929 59.75 73.093C59.75 73.0931 59.75 73.0932 59.75 73.0934C59.75 73.0935 59.75 73.0936 59.75 73.0938C59.75 73.0939 59.75 73.094 59.75 73.0941C59.75 73.0943 59.75 73.0944 59.75 73.0945C59.75 73.0947 59.75 73.0948 59.75 73.0949C59.75 73.095 59.75 73.0952 59.75 73.0953C59.75 73.0954 59.75 73.0956 59.75 73.0957C59.75 73.0958 59.75 73.0959 59.75 73.0961C59.75 73.0962 59.75 73.0963 59.75 73.0964C59.75 73.0966 59.75 73.0967 59.75 73.0968C59.75 73.097 59.75 73.0971 59.75 73.0972C59.75 73.0973 59.75 73.0975 59.75 73.0976C59.75 73.0977 59.75 73.0979 59.75 73.098C59.75 73.0981 59.75 73.0982 59.75 73.0984C59.75 73.0985 59.75 73.0986 59.75 73.0988C59.75 73.0989 59.75 73.099 59.75 73.0991C59.75 73.0993 59.75 73.0994 59.75 73.0995C59.75 73.0997 59.75 73.0998 59.75 73.0999C59.75 73.1 59.75 73.1002 59.75 73.1003C59.75 73.1004 59.75 73.1005 59.75 73.1007C59.75 73.1008 59.75 73.1009 59.75 73.1011C59.75 73.1012 59.75 73.1013 59.75 73.1014C59.75 73.1016 59.75 73.1017 59.75 73.1018C59.75 73.102 59.75 73.1021 59.75 73.1022C59.75 73.1023 59.75 73.1025 59.75 73.1026C59.75 73.1027 59.75 73.1029 59.75 73.103C59.75 73.1031 59.75 73.1032 59.75 73.1034C59.75 73.1035 59.75 73.1036 59.75 73.1038C59.75 73.1039 59.75 73.104 59.75 73.1041C59.75 73.1043 59.75 73.1044 59.75 73.1045C59.75 73.1047 59.75 73.1048 59.75 73.1049C59.75 73.105 59.75 73.1052 59.75 73.1053C59.75 73.1054 59.75 73.1055 59.75 73.1057C59.75 73.1058 59.75 73.1059 59.75 73.1061C59.75 73.1062 59.75 73.1063 59.75 73.1064C59.75 73.1066 59.75 73.1067 59.75 73.1068C59.75 73.107 59.75 73.1071 59.75 73.1072C59.75 73.1073 59.75 73.1075 59.75 73.1076C59.75 73.1077 59.75 73.1079 59.75 73.108C59.75 73.1081 59.75 73.1082 59.75 73.1084C59.75 73.1085 59.75 73.1086 59.75 73.1088C59.75 73.1089 59.75 73.109 59.75 73.1091C59.75 73.1093 59.75 73.1094 59.75 73.1095C59.75 73.1097 59.75 73.1098 59.75 73.1099C59.75 73.11 59.75 73.1102 59.75 73.1103C59.75 73.1104 59.75 73.1106 59.75 73.1107C59.75 73.1108 59.75 73.1109 59.75 73.1111C59.75 73.1112 59.75 73.1113 59.75 73.1115C59.75 73.1116 59.75 73.1117 59.75 73.1118C59.75 73.112 59.75 73.1121 59.75 73.1122C59.75 73.1124 59.75 73.1125 59.75 73.1126C59.75 73.1127 59.75 73.1129 59.75 73.113C59.75 73.1131 59.75 73.1133 59.75 73.1134C59.75 73.1135 59.75 73.1136 59.75 73.1138C59.75 73.1139 59.75 73.114 59.75 73.1142C59.75 73.1143 59.75 73.1144 59.75 73.1145C59.75 73.1147 59.75 73.1148 59.75 73.1149C59.75 73.1151 59.75 73.1152 59.75 73.1153C59.75 73.1154 59.75 73.1156 59.75 73.1157C59.75 73.1158 59.75 73.1159 59.75 73.1161C59.75 73.1162 59.75 73.1163 59.75 73.1165C59.75 73.1166 59.75 73.1167 59.75 73.1168C59.75 73.117 59.75 73.1171 59.75 73.1172C59.75 73.1174 59.75 73.1175 59.75 73.1176C59.75 73.1177 59.75 73.1179 59.75 73.118C59.75 73.1181 59.75 73.1183 59.75 73.1184C59.75 73.1185 59.75 73.1186 59.75 73.1188C59.75 73.1189 59.75 73.119 59.75 73.1192C59.75 73.1193 59.75 73.1194 59.75 73.1195C59.75 73.1197 59.75 73.1198 59.75 73.1199C59.75 73.1201 59.75 73.1202 59.75 73.1203C59.75 73.1204 59.75 73.1206 59.75 73.1207C59.75 73.1208 59.75 73.121 59.75 73.1211C59.75 73.1212 59.75 73.1213 59.75 73.1215C59.75 73.1216 59.75 73.1217 59.75 73.1219C59.75 73.122 59.75 73.1221 59.75 73.1222C59.75 73.1224 59.75 73.1225 59.75 73.1226C59.75 73.1228 59.75 73.1229 59.75 73.123C59.75 73.1231 59.75 73.1233 59.75 73.1234C59.75 73.1235 59.75 73.1237 59.75 73.1238C59.75 73.1239 59.75 73.1241 59.75 73.1242C59.75 73.1243 59.75 73.1244 59.75 73.1246C59.75 73.1247 59.75 73.1248 59.75 73.125C59.75 73.1251 59.75 73.1252 59.75 73.1253C59.75 73.1255 59.75 73.1256 59.75 73.1257C59.75 73.1259 59.75 73.126 59.75 73.1261C59.75 73.1262 59.75 73.1264 59.75 73.1265C59.75 73.1266 59.75 73.1268 59.75 73.1269C59.75 73.127 59.75 73.1271 59.75 73.1273C59.75 73.1274 59.75 73.1275 59.75 73.1277C59.75 73.1278 59.75 73.1279 59.75 73.128C59.75 73.1282 59.75 73.1283 59.75 73.1284C59.75 73.1286 59.75 73.1287 59.75 73.1288C59.75 73.1289 59.75 73.1291 59.75 73.1292C59.75 73.1293 59.75 73.1295 59.75 73.1296C59.75 73.1297 59.75 73.1298 59.75 73.13C59.75 73.1301 59.75 73.1302 59.75 73.1304C59.75 73.1305 59.75 73.1306 59.75 73.1307C59.75 73.1309 59.75 73.131 59.75 73.1311C59.75 73.1313 59.75 73.1314 59.75 73.1315C59.75 73.1316 59.75 73.1318 59.75 73.1319C59.75 73.132 59.75 73.1322 59.75 73.1323C59.75 73.1324 59.75 73.1325 59.75 73.1327C59.75 73.1328 59.75 73.1329 59.75 73.1331C59.75 73.1332 59.75 73.1333 59.75 73.1335C59.75 73.1336 59.75 73.1337 59.75 73.1338C59.75 73.134 59.75 73.1341 59.75 73.1342C59.75 73.1344 59.75 73.1345 59.75 73.1346C59.75 73.1347 59.75 73.1349 59.75 73.135C59.75 73.1351 59.75 73.1353 59.75 73.1354C59.75 73.1355 59.75 73.1356 59.75 73.1358C59.75 73.1359 59.75 73.136 59.75 73.1362C59.75 73.1363 59.75 73.1364 59.75 73.1365C59.75 73.1367 59.75 73.1368 59.75 73.1369C59.75 73.1371 59.75 73.1372 59.75 73.1373C59.75 73.1374 59.75 73.1376 59.75 73.1377C59.75 73.1378 59.75 73.138 59.75 73.1381C59.75 73.1382 59.75 73.1384 59.75 73.1385C59.75 73.1386 59.75 73.1387 59.75 73.1389C59.75 73.139 59.75 73.1391 59.75 73.1393C59.75 73.1394 59.75 73.1395 59.75 73.1396C59.75 73.1398 59.75 73.1399 59.75 73.14C59.75 73.1402 59.75 73.1403 59.75 73.1404C59.75 73.1405 59.75 73.1407 59.75 73.1408C59.75 73.1409 59.75 73.1411 59.75 73.1412C59.75 73.1413 59.75 73.1414 59.75 73.1416C59.75 73.1417 59.75 73.1418 59.75 73.142C59.75 73.1421 59.75 73.1422 59.75 73.1423C59.75 73.1425 59.75 73.1426 59.75 73.1427C59.75 73.1429 59.75 73.143 59.75 73.1431C59.75 73.1433 59.75 73.1434 59.75 73.1435C59.75 73.1436 59.75 73.1438 59.75 73.1439C59.75 73.144 59.75 73.1442 59.75 73.1443C59.75 73.1444 59.75 73.1445 59.75 73.1447C59.75 73.1448 59.75 73.1449 59.75 73.1451C59.75 73.1452 59.75 73.1453 59.75 73.1454C59.75 73.1456 59.75 73.1457 59.75 73.1458C59.75 73.146 59.75 73.1461 59.75 73.1462C59.75 73.1464 59.75 73.1465 59.75 73.1466C59.75 73.1467 59.75 73.1469 59.75 73.147C59.75 73.1471 59.75 73.1473 59.75 73.1474C59.75 73.1475 59.75 73.1476 59.75 73.1478C59.75 73.1479 59.75 73.148 59.75 73.1482C59.75 73.1483 59.75 73.1484 59.75 73.1485C59.75 73.1487 59.75 73.1488 59.75 73.1489C59.75 73.1491 59.75 73.1492 59.75 73.1493C59.75 73.1495 59.75 73.1496 59.75 73.1497C59.75 73.1498 59.75 73.15 59.75 73.1501C59.75 73.1502 59.75 73.1504 59.75 73.1505C59.75 73.1506 59.75 73.1507 59.75 73.1509C59.75 73.151 59.75 73.1511 59.75 73.1513C59.75 73.1514 59.75 73.1515 59.75 73.1516C59.75 73.1518 59.75 73.1519 59.75 73.152C59.75 73.1522 59.75 73.1523 59.75 73.1524C59.75 73.1526 59.75 73.1527 59.75 73.1528C59.75 73.1529 59.75 73.1531 59.75 73.1532C59.75 73.1533 59.75 73.1535 59.75 73.1536C59.75 73.1537 59.75 73.1538 59.75 73.154C59.75 73.1541 59.75 73.1542 59.75 73.1544C59.75 73.1545 59.75 73.1546 59.75 73.1548C59.75 73.1549 59.75 73.155 59.75 73.1551C59.75 73.1553 59.75 73.1554 59.75 73.1555C59.75 73.1557 59.75 73.1558 59.75 73.1559C59.75 73.156 59.75 73.1562 59.75 73.1563C59.75 73.1564 59.75 73.1566 59.75 73.1567C59.75 73.1568 59.75 73.157 59.75 73.1571C59.75 73.1572 59.75 73.1573 59.75 73.1575C59.75 73.1576 59.75 73.1577 59.75 73.1579C59.75 73.158 59.75 73.1581 59.75 73.1582C59.75 73.1584 59.75 73.1585 59.75 73.1586C59.75 73.1588 59.75 73.1589 59.75 73.159C59.75 73.1591 59.75 73.1593 59.75 73.1594C59.75 73.1595 59.75 73.1597 59.75 73.1598C59.75 73.1599 59.75 73.1601 59.75 73.1602C59.75 73.1603 59.75 73.1604 59.75 73.1606C59.75 73.1607 59.75 73.1608 59.75 73.161C59.75 73.1611 59.75 73.1612 59.75 73.1614C59.75 73.1615 59.75 73.1616 59.75 73.1617C59.75 73.1619 59.75 73.162 59.75 73.1621C59.75 73.1623 59.75 73.1624 59.75 73.1625C59.75 73.1626 59.75 73.1628 59.75 73.1629C59.75 73.163 59.75 73.1632 59.75 73.1633C59.75 73.1634 59.75 73.1636 59.75 73.1637C59.75 73.1638 59.75 73.1639 59.75 73.1641C59.75 73.1642 59.75 73.1643 59.75 73.1645C59.75 73.1646 59.75 73.1647 59.75 73.1648C59.75 73.165 59.75 73.1651 59.75 73.1652C59.75 73.1654 59.75 73.1655 59.75 73.1656C59.75 73.1658 59.75 73.1659 59.75 73.166C59.75 73.1661 59.75 73.1663 59.75 73.1664C59.75 73.1665 59.75 73.1667 59.75 73.1668C59.75 73.1669 59.75 73.167 59.75 73.1672C59.75 73.1673 59.75 73.1674 59.75 73.1676C59.75 73.1677 59.75 73.1678 59.75 73.168C59.75 73.1681 59.75 73.1682 59.75 73.1683C59.75 73.1685 59.75 73.1686 59.75 73.1687C59.75 73.1689 59.75 73.169 59.75 73.1691C59.75 73.1693 59.75 73.1694 59.75 73.1695C59.75 73.1696 59.75 73.1698 59.75 73.1699C59.75 73.17 59.75 73.1702 59.75 73.1703C59.75 73.1704 59.75 73.1705 59.75 73.1707C59.75 73.1708 59.75 73.1709 59.75 73.1711C59.75 73.1712 59.75 73.1713 59.75 73.1715C59.75 73.1716 59.75 73.1717 59.75 73.1718C59.75 73.172 59.75 73.1721 59.75 73.1722C59.75 73.1724 59.75 73.1725 59.75 73.1726C59.75 73.1728 59.75 73.1729 59.75 73.173C59.75 73.1731 59.75 73.1733 59.75 73.1734C59.75 73.1735 59.75 73.1737 59.75 73.1738C59.75 73.1739 59.75 73.174 59.75 73.1742C59.75 73.1743 59.75 73.1744 59.75 73.1746C59.75 73.1747 59.75 73.1748 59.75 73.175C59.75 73.1751 59.75 73.1752 59.75 73.1753C59.75 73.1755 59.75 73.1756 59.75 73.1757C59.75 73.1759 59.75 73.176 59.75 73.1761C59.75 73.1763 59.75 73.1764 59.75 73.1765C59.75 73.1766 59.75 73.1768 59.75 73.1769C59.75 73.177 59.75 73.1772 59.75 73.1773C59.75 73.1774 59.75 73.1776 59.75 73.1777C59.75 73.1778 59.75 73.1779 59.75 73.1781C59.75 73.1782 59.75 73.1783 59.75 73.1785C59.75 73.1786 59.75 73.1787 59.75 73.1789C59.75 73.179 59.75 73.1791 59.75 73.1792C59.75 73.1794 59.75 73.1795 59.75 73.1796C59.75 73.1798 59.75 73.1799 59.75 73.18C59.75 73.1801 59.75 73.1803 59.75 73.1804C59.75 73.1805 59.75 73.1807 59.75 73.1808C59.75 73.1809 59.75 73.1811 59.75 73.1812C59.75 73.1813 59.75 73.1814 59.75 73.1816C59.75 73.1817 59.75 73.1818 59.75 73.182C59.75 73.1821 59.75 73.1822 59.75 73.1824C59.75 73.1825 59.75 73.1826 59.75 73.1827C59.75 73.1829 59.75 73.183 59.75 73.1831C59.75 73.1833 59.75 73.1834 59.75 73.1835C59.75 73.1837 59.75 73.1838 59.75 73.1839C59.75 73.184 59.75 73.1842 59.75 73.1843C59.75 73.1844 59.75 73.1846 59.75 73.1847C59.75 73.1848 59.75 73.185 59.75 73.1851C59.75 73.1852 59.75 73.1853 59.75 73.1855C59.75 73.1856 59.75 73.1857 59.75 73.1859C59.75 73.186 59.75 73.1861 59.75 73.1863C59.75 73.1864 59.75 73.1865 59.75 73.1866C59.75 73.1868 59.75 73.1869 59.75 73.187C59.75 73.1872 59.75 73.1873 59.75 73.1874C59.75 73.1876 59.75 73.1877 59.75 73.1878C59.75 73.1879 59.75 73.1881 59.75 73.1882C59.75 73.1883 59.75 73.1885 59.75 73.1886C59.75 73.1887 59.75 73.1889 59.75 73.189C59.75 73.1891 59.75 73.1892 59.75 73.1894C59.75 73.1895 59.75 73.1896 59.75 73.1898C59.75 73.1899 59.75 73.19 59.75 73.1902C59.75 73.1903 59.75 73.1904 59.75 73.1905C59.75 73.1907 59.75 73.1908 59.75 73.1909C59.75 73.1911 59.75 73.1912 59.75 73.1913C59.75 73.1915 59.75 73.1916 59.75 73.1917C59.75 73.1918 59.75 73.192 59.75 73.1921C59.75 73.1922 59.75 73.1924 59.75 73.1925C59.75 73.1926 59.75 73.1928 59.75 73.1929C59.75 73.193 59.75 73.1931 59.75 73.1933C59.75 73.1934 59.75 73.1935 59.75 73.1937C59.75 73.1938 59.75 73.1939 59.75 73.1941C59.75 73.1942 59.75 73.1943 59.75 73.1944C59.75 73.1946 59.75 73.1947 59.75 73.1948C59.75 73.195 59.75 73.1951 59.75 73.1952C59.75 73.1954 59.75 73.1955 59.75 73.1956C59.75 73.1957 59.75 73.1959 59.75 73.196C59.75 73.1961 59.75 73.1963 59.75 73.1964C59.75 73.1965 59.75 73.1967 59.75 73.1968H62.25ZM73.8 84.75C71.5392 84.75 69.9187 84.749 68.6474 84.6452C67.3907 84.5425 66.5856 84.3455 65.9356 84.0143L64.8006 86.2418C65.8618 86.7825 67.0325 87.0215 68.4438 87.1369C69.8406 87.251 71.5804 87.25 73.8 87.25V84.75ZM59.75 73.1968C59.75 75.4174 59.749 77.1581 59.8631 78.5553C59.9784 79.9671 60.2174 81.1381 60.7582 82.1994L62.9857 81.0644C62.6545 80.4144 62.4575 79.6092 62.3548 78.3518C62.251 77.08 62.25 75.4587 62.25 73.1968H59.75ZM65.9356 84.0143C64.6655 83.3671 63.6329 82.3345 62.9857 81.0644L60.7582 82.1994C61.645 83.9399 63.0601 85.355 64.8006 86.2418L65.9356 84.0143ZM90.75 73.2C90.75 75.4608 90.749 77.0813 90.6452 78.3526C90.5425 79.6093 90.3455 80.4144 90.0143 81.0644L92.2418 82.1994C92.7825 81.1382 93.0215 79.9675 93.1369 78.5562C93.251 77.1595 93.25 75.4196 93.25 73.2H90.75ZM79.2 87.25C81.4196 87.25 83.1594 87.251 84.5562 87.1369C85.9675 87.0215 87.1382 86.7825 88.1994 86.2418L87.0644 84.0143C86.4144 84.3455 85.6093 84.5425 84.3526 84.6452C83.0813 84.749 81.4608 84.75 79.2 84.75V87.25ZM90.0143 81.0644C89.3671 82.3345 88.3345 83.3671 87.0644 84.0143L88.1994 86.2418C89.9399 85.355 91.355 83.9399 92.2418 82.1994L90.0143 81.0644ZM93.25 53.8C93.25 51.5804 93.251 49.8406 93.1369 48.4438C93.0215 47.0325 92.7825 45.8618 92.2418 44.8006L90.0143 45.9356C90.3455 46.5856 90.5425 47.3907 90.6452 48.6474C90.749 49.9187 90.75 51.5392 90.75 53.8H93.25ZM79.2 42.25C81.4608 42.25 83.0813 42.251 84.3526 42.3548C85.6093 42.4575 86.4144 42.6545 87.0644 42.9857L88.1994 40.7582C87.1382 40.2175 85.9675 39.9785 84.5562 39.8631C83.1594 39.749 81.4196 39.75 79.2 39.75V42.25ZM92.2418 44.8006C91.355 43.0601 89.9399 41.645 88.1994 40.7582L87.0644 42.9857C88.3345 43.6329 89.3671 44.6655 90.0143 45.9356L92.2418 44.8006Z" fill="#FF123D"/>
</g>
<g filter="url(#filter1_d)">
<rect x="10" y="28" width="37" height="51" rx="8" fill="url(#paint0_linear)"/>
</g>
<g filter="url(#filter2_bdi)">
<path d="M34 22.8C34 18.3196 34 16.0794 34.8719 14.3681C35.6389 12.8628 36.8628 11.6389 38.3681 10.8719C40.0794 10 42.3196 10 46.8 10H58.953C63.4334 10 65.6736 10 67.3849 10.8719C68.8902 11.6389 70.1141 12.8628 70.8811 14.3681C71.753 16.0794 71.753 18.3196 71.753 22.8V54.6291C71.753 59.1095 71.753 61.3498 70.8811 63.061C70.1141 64.5663 68.8902 65.7902 67.3849 66.5572C65.6736 67.4291 63.4334 67.4291 58.953 67.4291H46.8C42.3196 67.4291 40.0794 67.4291 38.3681 66.5572C36.8628 65.7902 35.6389 64.5663 34.8719 63.061C34 61.3498 34 59.1095 34 54.6291V22.8Z" fill="#98B5FF" fill-opacity="0.6"/>
</g>
<g filter="url(#filter3_bdi)">
<path fill-rule="evenodd" clip-rule="evenodd" d="M51.9412 27.1424C52.4577 26.5995 53.2952 26.5995 53.8117 27.1424L63.511 37.3363C64.0275 37.8792 64.0275 38.7593 63.511 39.3022L53.8117 49.4961C53.2952 50.039 52.4577 50.039 51.9412 49.4961L42.2419 39.3022C41.7254 38.7593 41.7254 37.8792 42.2419 37.3363L51.9412 27.1424ZM52.8765 30.0912L45.0476 38.3193L52.8765 46.5473L60.7053 38.3193L52.8765 30.0912Z" fill="#98B5FF" fill-opacity="0.6"/>
</g>
<g filter="url(#filter4_f)">
<rect x="34.75" y="10.75" width="36.253" height="55.9872" rx="7.25" stroke="#FFDFF4" stroke-opacity="0.2" stroke-width="1.5"/>
</g>
<defs>
<filter id="filter0_bdi" x="49.75" y="29.75" width="53.5" height="67.5" filterUnits="userSpaceOnUse" color-interpolation-filters="sRGB">
<feFlood flood-opacity="0" result="BackgroundImageFix"/>
<feGaussianBlur in="BackgroundImage" stdDeviation="5"/>
<feComposite in2="SourceAlpha" operator="in" result="effect1_backgroundBlur"/>
<feColorMatrix in="SourceAlpha" type="matrix" values="0 0 0 0 0 0 0 0 0 0 0 0 0 0 0 0 0 0 127 0"/>
<feOffset dy="-2"/>
<feGaussianBlur stdDeviation="4"/>
<feColorMatrix type="matrix" values="0 0 0 0 0 0 0 0 0 0 0 0 0 0 0 0 0 0 0.1 0"/>
<feBlend mode="normal" in2="effect1_backgroundBlur" result="effect2_dropShadow"/>
<feBlend mode="normal" in="SourceGraphic" in2="effect2_dropShadow" result="shape"/>
<feColorMatrix in="SourceAlpha" type="matrix" values="0 0 0 0 0 0 0 0 0 0 0 0 0 0 0 0 0 0 127 0" result="hardAlpha"/>
<feOffset dy="-2"/>
<feGaussianBlur stdDeviation="3.5"/>
<feComposite in2="hardAlpha" operator="arithmetic" k2="-1" k3="1"/>
<feColorMatrix type="matrix" values="0 0 0 0 1 0 0 0 0 1 0 0 0 0 1 0 0 0 0.3 0"/>
<feBlend mode="normal" in2="shape" result="effect3_innerShadow"/>
</filter>
<filter id="filter1_d" x="0" y="18" width="57" height="71" filterUnits="userSpaceOnUse" color-interpolation-filters="sRGB">
<feFlood flood-opacity="0" result="BackgroundImageFix"/>
<feColorMatrix in="SourceAlpha" type="matrix" values="0 0 0 0 0 0 0 0 0 0 0 0 0 0 0 0 0 0 127 0"/>
<feOffset/>
<feGaussianBlur stdDeviation="5"/>
<feColorMatrix type="matrix" values="0 0 0 0 0.00833333 0 0 0 0 0.762 0 0 0 0 1 0 0 0 0.5 0"/>
<feBlend mode="normal" in2="BackgroundImageFix" result="effect1_dropShadow"/>
<feBlend mode="normal" in="SourceGraphic" in2="effect1_dropShadow" result="shape"/>
</filter>
<filter id="filter2_bdi" x="24" y="0" width="57.753" height="77.4291" filterUnits="userSpaceOnUse" color-interpolation-filters="sRGB">
<feFlood flood-opacity="0" result="BackgroundImageFix"/>
<feGaussianBlur in="BackgroundImage" stdDeviation="5"/>
<feComposite in2="SourceAlpha" operator="in" result="effect1_backgroundBlur"/>
<feColorMatrix in="SourceAlpha" type="matrix" values="0 0 0 0 0 0 0 0 0 0 0 0 0 0 0 0 0 0 127 0"/>
<feOffset dy="-2"/>
<feGaussianBlur stdDeviation="4"/>
<feColorMatrix type="matrix" values="0 0 0 0 0 0 0 0 0 0 0 0 0 0 0 0 0 0 0.1 0"/>
<feBlend mode="normal" in2="effect1_backgroundBlur" result="effect2_dropShadow"/>
<feBlend mode="normal" in="SourceGraphic" in2="effect2_dropShadow" result="shape"/>
<feColorMatrix in="SourceAlpha" type="matrix" values="0 0 0 0 0 0 0 0 0 0 0 0 0 0 0 0 0 0 127 0" result="hardAlpha"/>
<feOffset dy="-2"/>
<feGaussianBlur stdDeviation="3.5"/>
<feComposite in2="hardAlpha" operator="arithmetic" k2="-1" k3="1"/>
<feColorMatrix type="matrix" values="0 0 0 0 1 0 0 0 0 1 0 0 0 0 1 0 0 0 0.3 0"/>
<feBlend mode="normal" in2="shape" result="effect3_innerShadow"/>
</filter>
<filter id="filter3_bdi" x="31.8545" y="16.7351" width="42.0439" height="43.1681" filterUnits="userSpaceOnUse" color-interpolation-filters="sRGB">
<feFlood flood-opacity="0" result="BackgroundImageFix"/>
<feGaussianBlur in="BackgroundImage" stdDeviation="5"/>
<feComposite in2="SourceAlpha" operator="in" result="effect1_backgroundBlur"/>
<feColorMatrix in="SourceAlpha" type="matrix" values="0 0 0 0 0 0 0 0 0 0 0 0 0 0 0 0 0 0 127 0"/>
<feOffset dy="-2"/>
<feGaussianBlur stdDeviation="4"/>
<feColorMatrix type="matrix" values="0 0 0 0 0 0 0 0 0 0 0 0 0 0 0 0 0 0 0.1 0"/>
<feBlend mode="normal" in2="effect1_backgroundBlur" result="effect2_dropShadow"/>
<feBlend mode="normal" in="SourceGraphic" in2="effect2_dropShadow" result="shape"/>
<feColorMatrix in="SourceAlpha" type="matrix" values="0 0 0 0 0 0 0 0 0 0 0 0 0 0 0 0 0 0 127 0" result="hardAlpha"/>
<feOffset dy="-2"/>
<feGaussianBlur stdDeviation="3.5"/>
<feComposite in2="hardAlpha" operator="arithmetic" k2="-1" k3="1"/>
<feColorMatrix type="matrix" values="0 0 0 0 1 0 0 0 0 1 0 0 0 0 1 0 0 0 0.3 0"/>
<feBlend mode="normal" in2="shape" result="effect3_innerShadow"/>
</filter>
<filter id="filter4_f" x="33" y="9" width="39.753" height="59.4872" filterUnits="userSpaceOnUse" color-interpolation-filters="sRGB">
<feFlood flood-opacity="0" result="BackgroundImageFix"/>
<feBlend mode="normal" in="SourceGraphic" in2="BackgroundImageFix" result="shape"/>
<feGaussianBlur stdDeviation="0.5" result="effect1_foregroundBlur"/>
</filter>
<linearGradient id="paint0_linear" x1="46.5443" y1="53.5" x2="10.9113" y2="53.5" gradientUnits="userSpaceOnUse">
<stop stop-color="#0075FF"/>
<stop offset="1" stop-color="#5AC4FF"/>
</linearGradient>
</defs>
</svg>
