<svg width="87" height="92" fill="none" xmlns="http://www.w3.org/2000/svg"><g filter="url(#filter0_d)"><path d="M38 52.015C38 37.59 47.639 30 57.024 30c9.386 0 19.025 7.591 19.025 22.015C76.049 66.438 72.244 82 57.024 82 41.804 82 38 66.311 38 52.015z" fill="url(#paint0_linear)"/></g><g filter="url(#filter1_bdi)"><path d="M37.878 70.569c-1.762 2.501-2.642 3.752-3.738 4.194a4 4 0 01-2.99 0c-1.095-.442-1.976-1.693-3.738-4.195L10.595 46.686c-.935-1.327-1.402-1.99-1.583-2.713a4 4 0 010-1.944c.18-.722.648-1.386 1.583-2.713l16.817-23.883c1.762-2.502 2.643-3.753 3.739-4.195a4 4 0 012.989 0c1.096.442 1.976 1.693 3.738 4.194l16.818 23.884c.934 1.327 1.401 1.99 1.582 2.713a4 4 0 010 1.944c-.18.722-.648 1.386-1.582 2.713L37.878 70.568z" fill="#98B5FF" fill-opacity=".6"/></g><g filter="url(#filter2_f)"><path d="M37.265 70.137c-.89 1.262-1.527 2.167-2.078 2.816-.548.646-.947.96-1.328 1.114a3.25 3.25 0 01-2.428 0c-.38-.153-.78-.468-1.328-1.114-.55-.649-1.189-1.554-2.078-2.816L11.209 46.253c-.97-1.378-1.33-1.91-1.468-2.463a3.25 3.25 0 010-1.58c.138-.554.497-1.085 1.468-2.463l16.818-23.884c.889-1.262 1.527-2.167 2.077-2.816.548-.646.947-.96 1.328-1.114a3.25 3.25 0 012.428 0c.381.153.78.468 1.328 1.114.55.649 1.189 1.554 2.078 2.816l16.818 23.884c.97 1.378 1.329 1.91 1.468 2.463a3.25 3.25 0 010 1.58c-.139.554-.498 1.085-1.468 2.463l-16.82 23.884z" stroke="#FFDFF4" stroke-opacity=".2" stroke-width="1.5"/></g><defs><filter id="filter0_d" x="28" y="20" width="58.049" height="72" filterUnits="userSpaceOnUse" color-interpolation-filters="sRGB"><feFlood flood-opacity="0" result="BackgroundImageFix"/><feColorMatrix in="SourceAlpha" values="0 0 0 0 0 0 0 0 0 0 0 0 0 0 0 0 0 0 127 0"/><feOffset/><feGaussianBlur stdDeviation="5"/><feColorMatrix values="0 0 0 0 0.00833333 0 0 0 0 0.762 0 0 0 0 1 0 0 0 0.5 0"/><feBlend in2="BackgroundImageFix" result="effect1_dropShadow"/><feBlend in="SourceGraphic" in2="effect1_dropShadow" result="shape"/></filter><filter id="filter1_bdi" x="-1.108" y=".948" width="67.506" height="84.105" filterUnits="userSpaceOnUse" color-interpolation-filters="sRGB"><feFlood flood-opacity="0" result="BackgroundImageFix"/><feGaussianBlur in="BackgroundImage" stdDeviation="5"/><feComposite in2="SourceAlpha" operator="in" result="effect1_backgroundBlur"/><feColorMatrix in="SourceAlpha" values="0 0 0 0 0 0 0 0 0 0 0 0 0 0 0 0 0 0 127 0"/><feOffset dy="-2"/><feGaussianBlur stdDeviation="4"/><feColorMatrix values="0 0 0 0 0 0 0 0 0 0 0 0 0 0 0 0 0 0 0.1 0"/><feBlend in2="effect1_backgroundBlur" result="effect2_dropShadow"/><feBlend in="SourceGraphic" in2="effect2_dropShadow" result="shape"/><feColorMatrix in="SourceAlpha" values="0 0 0 0 0 0 0 0 0 0 0 0 0 0 0 0 0 0 127 0" result="hardAlpha"/><feOffset dy="-2"/><feGaussianBlur stdDeviation="3.5"/><feComposite in2="hardAlpha" operator="arithmetic" k2="-1" k3="1"/><feColorMatrix values="0 0 0 0 1 0 0 0 0 1 0 0 0 0 1 0 0 0 0.3 0"/><feBlend in2="shape" result="effect3_innerShadow"/></filter><filter id="filter2_f" x="7.892" y="9.948" width="49.506" height="66.105" filterUnits="userSpaceOnUse" color-interpolation-filters="sRGB"><feFlood flood-opacity="0" result="BackgroundImageFix"/><feBlend in="SourceGraphic" in2="BackgroundImageFix" result="shape"/><feGaussianBlur stdDeviation=".5" result="effect1_foregroundBlur"/></filter><linearGradient id="paint0_linear" x1="75.58" y1="56" x2="38.937" y2="56" gradientUnits="userSpaceOnUse"><stop stop-color="#0075FF"/><stop offset="1" stop-color="#5AC4FF"/></linearGradient></defs></svg>