<svg width="100" height="60" fill="none" xmlns="http://www.w3.org/2000/svg"><g clip-path="url(#clip0)"><g filter="url(#filter0_d)"><circle cx="58.5" cy="29.5" r="14.5" fill="url(#paint0_linear)"/></g><g filter="url(#filter1_bdi)"><path d="M82 29.5c0-9.403-5.522-17.515-13.5-21.272M58.5 6a23.39 23.39 0 00-13.12 4M78.5 41.845C74.359 48.54 66.95 53 58.5 53a23.41 23.41 0 01-9.501-2" stroke="#FF123D" stroke-width="2.5" stroke-linecap="round" stroke-linejoin="round"/></g><g filter="url(#filter2_bdi)"><path d="M32.995 11.595l-12.01 5.148A4.887 4.887 0 0018 21.219V34.5c0 4.103 1.492 7.982 4.178 11.04 1.193 1.344 2.835 2.537 4.849 3.656l5.595 2.91a4.907 4.907 0 004.551 0l5.52-2.91c1.791-.895 3.209-1.94 4.402-3.133l.448-.522c2.686-3.059 4.178-6.938 4.178-10.967v-13.28a4.888 4.888 0 00-2.984-4.476l-11.862-5.222a5 5 0 00-3.88 0z" fill="#98B5FF" fill-opacity=".6"/></g><g filter="url(#filter3_f)"><path fill-rule="evenodd" clip-rule="evenodd" d="M20.984 16.743A4.887 4.887 0 0018 21.219V34.5c0 4.103 1.492 7.982 4.178 11.04 1.193 1.344 2.835 2.537 4.849 3.656l5.595 2.91a4.907 4.907 0 004.551 0l5.52-2.91c1.791-.895 3.209-1.94 4.402-3.133l.448-.522c2.686-3.059 4.178-6.938 4.178-10.967v-13.28a4.888 4.888 0 00-2.984-4.476l-11.862-5.222a5 5 0 00-3.88 0l-12.01 5.148zm12.591-3.764l-12.007 5.146-.007.003a3.387 3.387 0 00-2.061 3.091V34.5c0 3.73 1.354 7.258 3.802 10.048 1.037 1.165 2.513 2.258 4.436 3.327l5.583 2.903c.98.516 2.173.516 3.153 0l5.535-2.916.014-.007c1.63-.815 2.903-1.752 3.972-2.813l.415-.484.006-.007c2.452-2.792 3.805-6.322 3.805-9.977v-13.28c0-1.333-.83-2.578-2.061-3.09l-.014-.007-11.858-5.22a3.498 3.498 0 00-2.712.002z" fill="#FFDFF4" fill-opacity=".2"/></g><g filter="url(#filter4_bdi)"><path fill-rule="evenodd" clip-rule="evenodd" d="M35 24a1 1 0 011 1v12a1 1 0 11-2 0V25a1 1 0 011-1z" fill="#98B5FF" fill-opacity=".6"/></g><g filter="url(#filter5_bdi)"><path fill-rule="evenodd" clip-rule="evenodd" d="M28 31a1 1 0 011-1h12a1 1 0 110 2H29a1 1 0 01-1-1z" fill="#98B5FF" fill-opacity=".6"/></g></g><defs><filter id="filter0_d" x="34" y="5" width="49" height="49" filterUnits="userSpaceOnUse" color-interpolation-filters="sRGB"><feFlood flood-opacity="0" result="BackgroundImageFix"/><feColorMatrix in="SourceAlpha" values="0 0 0 0 0 0 0 0 0 0 0 0 0 0 0 0 0 0 127 0"/><feOffset/><feGaussianBlur stdDeviation="5"/><feColorMatrix values="0 0 0 0 0.00833333 0 0 0 0 0.762 0 0 0 0 1 0 0 0 0.5 0"/><feBlend in2="BackgroundImageFix" result="effect1_dropShadow"/><feBlend in="SourceGraphic" in2="effect1_dropShadow" result="shape"/></filter><filter id="filter1_bdi" x="34.131" y="-5.25" width="59.119" height="69.5" filterUnits="userSpaceOnUse" color-interpolation-filters="sRGB"><feFlood flood-opacity="0" result="BackgroundImageFix"/><feGaussianBlur in="BackgroundImage" stdDeviation="5"/><feComposite in2="SourceAlpha" operator="in" result="effect1_backgroundBlur"/><feColorMatrix in="SourceAlpha" values="0 0 0 0 0 0 0 0 0 0 0 0 0 0 0 0 0 0 127 0"/><feOffset dy="-2"/><feGaussianBlur stdDeviation="4"/><feColorMatrix values="0 0 0 0 0 0 0 0 0 0 0 0 0 0 0 0 0 0 0.1 0"/><feBlend in2="effect1_backgroundBlur" result="effect2_dropShadow"/><feBlend in="SourceGraphic" in2="effect2_dropShadow" result="shape"/><feColorMatrix in="SourceAlpha" values="0 0 0 0 0 0 0 0 0 0 0 0 0 0 0 0 0 0 127 0" result="hardAlpha"/><feOffset dy="-2"/><feGaussianBlur stdDeviation="3.5"/><feComposite in2="hardAlpha" operator="arithmetic" k2="-1" k3="1"/><feColorMatrix values="0 0 0 0 1 0 0 0 0 1 0 0 0 0 1 0 0 0 0.3 0"/><feBlend in2="shape" result="effect3_innerShadow"/></filter><filter id="filter2_bdi" x="8" y="1.204" width="53.721" height="61.461" filterUnits="userSpaceOnUse" color-interpolation-filters="sRGB"><feFlood flood-opacity="0" result="BackgroundImageFix"/><feGaussianBlur in="BackgroundImage" stdDeviation="5"/><feComposite in2="SourceAlpha" operator="in" result="effect1_backgroundBlur"/><feColorMatrix in="SourceAlpha" values="0 0 0 0 0 0 0 0 0 0 0 0 0 0 0 0 0 0 127 0"/><feOffset dy="-2"/><feGaussianBlur stdDeviation="4"/><feColorMatrix values="0 0 0 0 0 0 0 0 0 0 0 0 0 0 0 0 0 0 0.1 0"/><feBlend in2="effect1_backgroundBlur" result="effect2_dropShadow"/><feBlend in="SourceGraphic" in2="effect2_dropShadow" result="shape"/><feColorMatrix in="SourceAlpha" values="0 0 0 0 0 0 0 0 0 0 0 0 0 0 0 0 0 0 127 0" result="hardAlpha"/><feOffset dy="-2"/><feGaussianBlur stdDeviation="3.5"/><feComposite in2="hardAlpha" operator="arithmetic" k2="-1" k3="1"/><feColorMatrix values="0 0 0 0 1 0 0 0 0 1 0 0 0 0 1 0 0 0 0.3 0"/><feBlend in2="shape" result="effect3_innerShadow"/></filter><filter id="filter3_f" x="17" y="10.204" width="35.721" height="43.461" filterUnits="userSpaceOnUse" color-interpolation-filters="sRGB"><feFlood flood-opacity="0" result="BackgroundImageFix"/><feBlend in="SourceGraphic" in2="BackgroundImageFix" result="shape"/><feGaussianBlur stdDeviation=".5" result="effect1_foregroundBlur"/></filter><filter id="filter4_bdi" x="24" y="14" width="22" height="34" filterUnits="userSpaceOnUse" color-interpolation-filters="sRGB"><feFlood flood-opacity="0" result="BackgroundImageFix"/><feGaussianBlur in="BackgroundImage" stdDeviation="5"/><feComposite in2="SourceAlpha" operator="in" result="effect1_backgroundBlur"/><feColorMatrix in="SourceAlpha" values="0 0 0 0 0 0 0 0 0 0 0 0 0 0 0 0 0 0 127 0"/><feOffset dy="-2"/><feGaussianBlur stdDeviation="4"/><feColorMatrix values="0 0 0 0 0 0 0 0 0 0 0 0 0 0 0 0 0 0 0.1 0"/><feBlend in2="effect1_backgroundBlur" result="effect2_dropShadow"/><feBlend in="SourceGraphic" in2="effect2_dropShadow" result="shape"/><feColorMatrix in="SourceAlpha" values="0 0 0 0 0 0 0 0 0 0 0 0 0 0 0 0 0 0 127 0" result="hardAlpha"/><feOffset dy="-2"/><feGaussianBlur stdDeviation="3.5"/><feComposite in2="hardAlpha" operator="arithmetic" k2="-1" k3="1"/><feColorMatrix values="0 0 0 0 1 0 0 0 0 1 0 0 0 0 1 0 0 0 0.3 0"/><feBlend in2="shape" result="effect3_innerShadow"/></filter><filter id="filter5_bdi" x="18" y="20" width="34" height="22" filterUnits="userSpaceOnUse" color-interpolation-filters="sRGB"><feFlood flood-opacity="0" result="BackgroundImageFix"/><feGaussianBlur in="BackgroundImage" stdDeviation="5"/><feComposite in2="SourceAlpha" operator="in" result="effect1_backgroundBlur"/><feColorMatrix in="SourceAlpha" values="0 0 0 0 0 0 0 0 0 0 0 0 0 0 0 0 0 0 127 0"/><feOffset dy="-2"/><feGaussianBlur stdDeviation="4"/><feColorMatrix values="0 0 0 0 0 0 0 0 0 0 0 0 0 0 0 0 0 0 0.1 0"/><feBlend in2="effect1_backgroundBlur" result="effect2_dropShadow"/><feBlend in="SourceGraphic" in2="effect2_dropShadow" result="shape"/><feColorMatrix in="SourceAlpha" values="0 0 0 0 0 0 0 0 0 0 0 0 0 0 0 0 0 0 127 0" result="hardAlpha"/><feOffset dy="-2"/><feGaussianBlur stdDeviation="3.5"/><feComposite in2="hardAlpha" operator="arithmetic" k2="-1" k3="1"/><feColorMatrix values="0 0 0 0 1 0 0 0 0 1 0 0 0 0 1 0 0 0 0.3 0"/><feBlend in2="shape" result="effect3_innerShadow"/></filter><linearGradient id="paint0_linear" x1="72.643" y1="29.5" x2="44.714" y2="29.5" gradientUnits="userSpaceOnUse"><stop stop-color="#0075FF"/><stop offset="1" stop-color="#5AC4FF"/></linearGradient><clipPath id="clip0"><path fill="#fff" d="M0 0h100v60H0z"/></clipPath></defs></svg>