<svg width="102" height="94" fill="none" xmlns="http://www.w3.org/2000/svg"><g filter="url(#filter0_d)"><path d="M25.503 24.378a1.665 1.665 0 011.994 0C31.067 26.994 43 37.216 43 56.992c0 16.496-7.802 23.42-16.5 23.42S10 73.464 10 56.992c0-19.776 11.933-29.998 15.503-32.614z" fill="url(#paint0_linear)"/></g><g filter="url(#filter1_bdi)"><path d="M64.72 76.5c2.508 6.584 7.453 9.5 12.78 9.5C85.144 86 92 80.018 92 65.767 92 45.677 77.5 37 77.5 37l-2 1.5" stroke="#FF123D" stroke-width="2.5" stroke-linecap="round" stroke-linejoin="round"/></g><g filter="url(#filter2_f)"><path d="M48.712 12.915c.764-.656 1.04-.883 1.699-1.076.182-.053.52-.093.91-.093.388 0 .726.04.909.093.66.193.934.42 1.698 1.076 5.124 4.397 14.963 15.28 14.963 34.071 0 9.052-2.14 15.37-5.375 19.41-3.221 4.023-7.58 5.854-12.196 5.854-4.615 0-8.974-1.837-12.196-5.864-3.234-4.043-5.374-10.361-5.374-19.4 0-18.79 9.839-29.674 14.962-34.071z" stroke="#FFDFF4" stroke-opacity=".2" stroke-width="1.5"/></g><g filter="url(#filter3_f)"><path fill-rule="evenodd" clip-rule="evenodd" d="M49.855 12.506c0-.614-.607-1.005-1.084-.62-.166.133-.343.284-.547.46C43 16.828 33 27.902 33 46.986c0 16.843 7.342 24.721 16.042 25.866a.726.726 0 00.813-.73.78.78 0 00-.683-.765c-3.586-.488-6.896-2.233-9.462-5.44-3.095-3.87-5.21-10.002-5.21-18.93 0-18.499 9.677-29.192 14.7-33.503l.316-.268a.933.933 0 00.34-.71zm2.93 59.616a.78.78 0 01.684-.765c3.587-.486 6.897-2.227 9.462-5.43 3.094-3.866 5.21-9.999 5.21-18.94 0-18.499-9.677-29.192-14.701-33.503l-.315-.268a.933.933 0 01-.34-.71c0-.613.608-1.004 1.086-.62.165.133.342.285.546.46 5.223 4.482 15.224 15.556 15.224 34.64 0 16.867-7.342 24.725-16.042 25.867a.726.726 0 01-.813-.731z" fill="#FFDFF4" fill-opacity=".2"/></g><g filter="url(#filter4_bdi)"><path d="M48.224 12.346c.765-.656 1.147-.985 1.977-1.226.562-.164 1.676-.164 2.239 0 .83.241 1.212.57 1.977 1.226 5.223 4.483 15.224 15.557 15.224 34.64C69.64 65.31 60.978 73 51.32 73 41.662 73 33 65.283 33 46.986c0-19.083 10-30.157 15.224-34.64z" fill="#98B5FF" fill-opacity=".6"/></g><g filter="url(#filter5_bdi)"><path fill-rule="evenodd" clip-rule="evenodd" d="M51.32 20.92c.717 0 1.297.438 1.297.98v17.45l5.676-7.243a1.297 1.297 0 012.041 1.6l-7.717 9.849v13.236l7.105-8.234a1.297 1.297 0 111.963 1.694l-9.068 10.51v3.268c0 .54-.58.98-1.296.98-.717 0-1.297-.44-1.297-.98v-3.268l-9.068-10.51a1.297 1.297 0 111.964-1.694l7.104 8.233V43.556l-7.717-9.848a1.297 1.297 0 112.042-1.6l5.675 7.243V21.9c0-.54.58-.98 1.297-.98z" fill="#98B5FF" fill-opacity=".6"/></g><defs><filter id="filter0_d" x="0" y="14.047" width="53" height="76.365" filterUnits="userSpaceOnUse" color-interpolation-filters="sRGB"><feFlood flood-opacity="0" result="BackgroundImageFix"/><feColorMatrix in="SourceAlpha" values="0 0 0 0 0 0 0 0 0 0 0 0 0 0 0 0 0 0 127 0"/><feOffset/><feGaussianBlur stdDeviation="5"/><feColorMatrix values="0 0 0 0 0.00833333 0 0 0 0 0.762 0 0 0 0 1 0 0 0 0.5 0"/><feBlend in2="BackgroundImageFix" result="effect1_dropShadow"/><feBlend in="SourceGraphic" in2="effect1_dropShadow" result="shape"/></filter><filter id="filter1_bdi" x="53.47" y="25.75" width="49.78" height="71.5" filterUnits="userSpaceOnUse" color-interpolation-filters="sRGB"><feFlood flood-opacity="0" result="BackgroundImageFix"/><feGaussianBlur in="BackgroundImage" stdDeviation="5"/><feComposite in2="SourceAlpha" operator="in" result="effect1_backgroundBlur"/><feColorMatrix in="SourceAlpha" values="0 0 0 0 0 0 0 0 0 0 0 0 0 0 0 0 0 0 127 0"/><feOffset dy="-2"/><feGaussianBlur stdDeviation="4"/><feColorMatrix values="0 0 0 0 0 0 0 0 0 0 0 0 0 0 0 0 0 0 0.1 0"/><feBlend in2="effect1_backgroundBlur" result="effect2_dropShadow"/><feBlend in="SourceGraphic" in2="effect2_dropShadow" result="shape"/><feColorMatrix in="SourceAlpha" values="0 0 0 0 0 0 0 0 0 0 0 0 0 0 0 0 0 0 127 0" result="hardAlpha"/><feOffset dy="-2"/><feGaussianBlur stdDeviation="3.5"/><feComposite in2="hardAlpha" operator="arithmetic" k2="-1" k3="1"/><feColorMatrix values="0 0 0 0 1 0 0 0 0 1 0 0 0 0 1 0 0 0 0.3 0"/><feBlend in2="shape" result="effect3_innerShadow"/></filter><filter id="filter2_f" x="32" y="9.996" width="38.641" height="64.004" filterUnits="userSpaceOnUse" color-interpolation-filters="sRGB"><feFlood flood-opacity="0" result="BackgroundImageFix"/><feBlend in="SourceGraphic" in2="BackgroundImageFix" result="shape"/><feGaussianBlur stdDeviation=".5" result="effect1_foregroundBlur"/></filter><filter id="filter3_f" x="32" y="10.733" width="38.641" height="63.126" filterUnits="userSpaceOnUse" color-interpolation-filters="sRGB"><feFlood flood-opacity="0" result="BackgroundImageFix"/><feBlend in="SourceGraphic" in2="BackgroundImageFix" result="shape"/><feGaussianBlur stdDeviation=".5" result="effect1_foregroundBlur"/></filter><filter id="filter4_bdi" x="23" y=".997" width="56.641" height="82.004" filterUnits="userSpaceOnUse" color-interpolation-filters="sRGB"><feFlood flood-opacity="0" result="BackgroundImageFix"/><feGaussianBlur in="BackgroundImage" stdDeviation="5"/><feComposite in2="SourceAlpha" operator="in" result="effect1_backgroundBlur"/><feColorMatrix in="SourceAlpha" values="0 0 0 0 0 0 0 0 0 0 0 0 0 0 0 0 0 0 127 0"/><feOffset dy="-2"/><feGaussianBlur stdDeviation="4"/><feColorMatrix values="0 0 0 0 0 0 0 0 0 0 0 0 0 0 0 0 0 0 0.1 0"/><feBlend in2="effect1_backgroundBlur" result="effect2_dropShadow"/><feBlend in="SourceGraphic" in2="effect2_dropShadow" result="shape"/><feColorMatrix in="SourceAlpha" values="0 0 0 0 0 0 0 0 0 0 0 0 0 0 0 0 0 0 127 0" result="hardAlpha"/><feOffset dy="-2"/><feGaussianBlur stdDeviation="3.5"/><feComposite in2="hardAlpha" operator="arithmetic" k2="-1" k3="1"/><feColorMatrix values="0 0 0 0 1 0 0 0 0 1 0 0 0 0 1 0 0 0 0.3 0"/><feBlend in2="shape" result="effect3_innerShadow"/></filter><filter id="filter5_bdi" x="30.641" y="10.919" width="41.359" height="64.091" filterUnits="userSpaceOnUse" color-interpolation-filters="sRGB"><feFlood flood-opacity="0" result="BackgroundImageFix"/><feGaussianBlur in="BackgroundImage" stdDeviation="5"/><feComposite in2="SourceAlpha" operator="in" result="effect1_backgroundBlur"/><feColorMatrix in="SourceAlpha" values="0 0 0 0 0 0 0 0 0 0 0 0 0 0 0 0 0 0 127 0"/><feOffset dy="-2"/><feGaussianBlur stdDeviation="4"/><feColorMatrix values="0 0 0 0 0 0 0 0 0 0 0 0 0 0 0 0 0 0 0.1 0"/><feBlend in2="effect1_backgroundBlur" result="effect2_dropShadow"/><feBlend in="SourceGraphic" in2="effect2_dropShadow" result="shape"/><feColorMatrix in="SourceAlpha" values="0 0 0 0 0 0 0 0 0 0 0 0 0 0 0 0 0 0 127 0" result="hardAlpha"/><feOffset dy="-2"/><feGaussianBlur stdDeviation="3.5"/><feComposite in2="hardAlpha" operator="arithmetic" k2="-1" k3="1"/><feColorMatrix values="0 0 0 0 1 0 0 0 0 1 0 0 0 0 1 0 0 0 0.3 0"/><feBlend in2="shape" result="effect3_innerShadow"/></filter><linearGradient id="paint0_linear" x1="42.594" y1="51.789" x2="10.813" y2="51.789" gradientUnits="userSpaceOnUse"><stop stop-color="#0075FF"/><stop offset="1" stop-color="#5AC4FF"/></linearGradient></defs></svg>