<svg width="102" height="94" fill="none" xmlns="http://www.w3.org/2000/svg"><g filter="url(#filter0_bdi)"><path d="M78.5 39.75a1.25 1.25 0 100 2.5v-2.5zM62.25 73a1.25 1.25 0 10-2.5 0h2.5zm3.118 12.128l-.567 1.114.567-1.114zm-3.496-3.496l-1.114.567 1.114-.567zm29.256 0l1.114.567-1.114-.567zm-3.496 3.496l.567 1.114-.567-1.114zm3.496-39.76l1.114-.567-1.114.567zM90.75 53.8v19.4h2.5V53.8h-2.5zM79.2 84.75h-5.4v2.5h5.4v-2.5zm-.7-42.5h.7v-2.5h-.7v2.5zM62.25 73.197V73h-2.5v.197h2.5zM73.8 84.75c-2.26 0-3.881-.001-5.153-.105-1.256-.102-2.061-.3-2.711-.63L64.8 86.241c1.06.54 2.231.78 3.643.895 1.397.114 3.136.113 5.356.113v-2.5zM59.75 73.197c0 2.22-.001 3.961.113 5.358.115 1.412.354 2.583.895 3.644l2.228-1.135c-.331-.65-.528-1.455-.631-2.712-.104-1.272-.105-2.893-.105-5.155h-2.5zm6.186 10.817a6.75 6.75 0 01-2.95-2.95L60.758 82.2a9.25 9.25 0 004.043 4.043l1.135-2.228zM90.75 73.2c0 2.26-.001 3.881-.105 5.153-.102 1.256-.3 2.061-.63 2.711l2.227 1.135c.54-1.06.78-2.231.895-3.643.114-1.397.113-3.136.113-5.356h-2.5zM79.2 87.25c2.22 0 3.96.001 5.356-.113 1.412-.115 2.582-.355 3.643-.895l-1.135-2.228c-.65.332-1.455.529-2.711.631-1.272.104-2.892.105-5.153.105v2.5zm10.814-6.186a6.75 6.75 0 01-2.95 2.95l1.135 2.228a9.25 9.25 0 004.043-4.043l-2.228-1.135zM93.25 53.8c0-2.22.001-3.96-.113-5.356-.115-1.412-.355-2.582-.895-3.643l-2.228 1.135c.332.65.529 1.455.631 2.711.104 1.272.105 2.892.105 5.153h2.5zM79.2 42.25c2.26 0 3.881.001 5.153.105 1.256.103 2.061.3 2.711.63l1.135-2.227c-1.06-.54-2.231-.78-3.643-.895-1.397-.114-3.136-.113-5.356-.113v2.5zm13.042 2.55a9.25 9.25 0 00-4.043-4.042l-1.135 2.228a6.75 6.75 0 012.95 2.95l2.228-1.135z" fill="#FF123D"/></g><g filter="url(#filter1_d)"><rect x="10" y="28" width="37" height="51" rx="8" fill="url(#paint0_linear)"/></g><g filter="url(#filter2_bdi)"><path d="M34 22.8c0-4.48 0-6.72.872-8.432a8 8 0 013.496-3.496C40.08 10 42.32 10 46.8 10h12.153c4.48 0 6.72 0 8.432.872a8 8 0 013.496 3.496c.872 1.711.872 3.952.872 8.432v31.83c0 4.48 0 6.72-.872 8.431a8 8 0 01-3.496 3.496c-1.711.872-3.952.872-8.432.872H46.8c-4.48 0-6.72 0-8.432-.872a8 8 0 01-3.496-3.496C34 61.35 34 59.109 34 54.629V22.8z" fill="#98B5FF" fill-opacity=".6"/></g><g filter="url(#filter3_bdi)"><path fill-rule="evenodd" clip-rule="evenodd" d="M51.941 27.142a1.278 1.278 0 011.87 0l9.7 10.194a1.44 1.44 0 010 1.966l-9.7 10.194a1.278 1.278 0 01-1.87 0l-9.7-10.194a1.44 1.44 0 010-1.966l9.7-10.194zm.935 2.95l-7.828 8.227 7.828 8.228 7.83-8.228-7.83-8.228z" fill="#98B5FF" fill-opacity=".6"/></g><g filter="url(#filter4_f)"><rect x="34.75" y="10.75" width="36.253" height="55.987" rx="7.25" stroke="#FFDFF4" stroke-opacity=".2" stroke-width="1.5"/></g><defs><filter id="filter0_bdi" x="49.75" y="29.75" width="53.5" height="67.5" filterUnits="userSpaceOnUse" color-interpolation-filters="sRGB"><feFlood flood-opacity="0" result="BackgroundImageFix"/><feGaussianBlur in="BackgroundImage" stdDeviation="5"/><feComposite in2="SourceAlpha" operator="in" result="effect1_backgroundBlur"/><feColorMatrix in="SourceAlpha" values="0 0 0 0 0 0 0 0 0 0 0 0 0 0 0 0 0 0 127 0"/><feOffset dy="-2"/><feGaussianBlur stdDeviation="4"/><feColorMatrix values="0 0 0 0 0 0 0 0 0 0 0 0 0 0 0 0 0 0 0.1 0"/><feBlend in2="effect1_backgroundBlur" result="effect2_dropShadow"/><feBlend in="SourceGraphic" in2="effect2_dropShadow" result="shape"/><feColorMatrix in="SourceAlpha" values="0 0 0 0 0 0 0 0 0 0 0 0 0 0 0 0 0 0 127 0" result="hardAlpha"/><feOffset dy="-2"/><feGaussianBlur stdDeviation="3.5"/><feComposite in2="hardAlpha" operator="arithmetic" k2="-1" k3="1"/><feColorMatrix values="0 0 0 0 1 0 0 0 0 1 0 0 0 0 1 0 0 0 0.3 0"/><feBlend in2="shape" result="effect3_innerShadow"/></filter><filter id="filter1_d" x="0" y="18" width="57" height="71" filterUnits="userSpaceOnUse" color-interpolation-filters="sRGB"><feFlood flood-opacity="0" result="BackgroundImageFix"/><feColorMatrix in="SourceAlpha" values="0 0 0 0 0 0 0 0 0 0 0 0 0 0 0 0 0 0 127 0"/><feOffset/><feGaussianBlur stdDeviation="5"/><feColorMatrix values="0 0 0 0 0.00833333 0 0 0 0 0.762 0 0 0 0 1 0 0 0 0.5 0"/><feBlend in2="BackgroundImageFix" result="effect1_dropShadow"/><feBlend in="SourceGraphic" in2="effect1_dropShadow" result="shape"/></filter><filter id="filter2_bdi" x="24" y="0" width="57.753" height="77.429" filterUnits="userSpaceOnUse" color-interpolation-filters="sRGB"><feFlood flood-opacity="0" result="BackgroundImageFix"/><feGaussianBlur in="BackgroundImage" stdDeviation="5"/><feComposite in2="SourceAlpha" operator="in" result="effect1_backgroundBlur"/><feColorMatrix in="SourceAlpha" values="0 0 0 0 0 0 0 0 0 0 0 0 0 0 0 0 0 0 127 0"/><feOffset dy="-2"/><feGaussianBlur stdDeviation="4"/><feColorMatrix values="0 0 0 0 0 0 0 0 0 0 0 0 0 0 0 0 0 0 0.1 0"/><feBlend in2="effect1_backgroundBlur" result="effect2_dropShadow"/><feBlend in="SourceGraphic" in2="effect2_dropShadow" result="shape"/><feColorMatrix in="SourceAlpha" values="0 0 0 0 0 0 0 0 0 0 0 0 0 0 0 0 0 0 127 0" result="hardAlpha"/><feOffset dy="-2"/><feGaussianBlur stdDeviation="3.5"/><feComposite in2="hardAlpha" operator="arithmetic" k2="-1" k3="1"/><feColorMatrix values="0 0 0 0 1 0 0 0 0 1 0 0 0 0 1 0 0 0 0.3 0"/><feBlend in2="shape" result="effect3_innerShadow"/></filter><filter id="filter3_bdi" x="31.855" y="16.735" width="42.044" height="43.168" filterUnits="userSpaceOnUse" color-interpolation-filters="sRGB"><feFlood flood-opacity="0" result="BackgroundImageFix"/><feGaussianBlur in="BackgroundImage" stdDeviation="5"/><feComposite in2="SourceAlpha" operator="in" result="effect1_backgroundBlur"/><feColorMatrix in="SourceAlpha" values="0 0 0 0 0 0 0 0 0 0 0 0 0 0 0 0 0 0 127 0"/><feOffset dy="-2"/><feGaussianBlur stdDeviation="4"/><feColorMatrix values="0 0 0 0 0 0 0 0 0 0 0 0 0 0 0 0 0 0 0.1 0"/><feBlend in2="effect1_backgroundBlur" result="effect2_dropShadow"/><feBlend in="SourceGraphic" in2="effect2_dropShadow" result="shape"/><feColorMatrix in="SourceAlpha" values="0 0 0 0 0 0 0 0 0 0 0 0 0 0 0 0 0 0 127 0" result="hardAlpha"/><feOffset dy="-2"/><feGaussianBlur stdDeviation="3.5"/><feComposite in2="hardAlpha" operator="arithmetic" k2="-1" k3="1"/><feColorMatrix values="0 0 0 0 1 0 0 0 0 1 0 0 0 0 1 0 0 0 0.3 0"/><feBlend in2="shape" result="effect3_innerShadow"/></filter><filter id="filter4_f" x="33" y="9" width="39.753" height="59.487" filterUnits="userSpaceOnUse" color-interpolation-filters="sRGB"><feFlood flood-opacity="0" result="BackgroundImageFix"/><feBlend in="SourceGraphic" in2="BackgroundImageFix" result="shape"/><feGaussianBlur stdDeviation=".5" result="effect1_foregroundBlur"/></filter><linearGradient id="paint0_linear" x1="46.544" y1="53.5" x2="10.911" y2="53.5" gradientUnits="userSpaceOnUse"><stop stop-color="#0075FF"/><stop offset="1" stop-color="#5AC4FF"/></linearGradient></defs></svg>