<svg width="92" height="74" fill="none" xmlns="http://www.w3.org/2000/svg"><g filter="url(#filter0_d)"><path d="M73.434 30c-2.577 0-12.765.368-44.434 3.678 31.669 3.31 41.857 3.677 44.434 3.677 2.578 0 4.788-.858 4.788-3.677 0-2.82-2.087-3.678-4.787-3.678z" fill="url(#paint0_linear)"/></g><g filter="url(#filter1_d)"><path d="M43.709 40c-1.956 0-9.684.283-33.709 2.829 24.025 2.546 31.753 2.829 33.709 2.829 1.955 0 3.631-.66 3.631-2.83 0-2.168-1.582-2.828-3.63-2.828z" fill="url(#paint1_linear)"/></g><g filter="url(#filter2_bdi)"><path d="M82.771 27.737c-1.376-1.204-3.44-.946-4.73.344-3.266 3.095-8.425 3.009-11.607-.172l-4.643-4.643a15.102 15.102 0 00-21.41 0l-1.031 1.031c-1.29 1.29-1.548 3.526-.258 4.901 1.29 1.462 3.611 1.548 4.987.172l1.203-1.204c1.806-1.805 4.214-2.579 6.621-2.321 2.064.172 2.838 2.751 1.462 4.127L40.639 42.44c-1.633 1.46-3.439 2.32-5.502 2.32H27.57c-1.805 0-3.44 1.29-3.611 3.095-.172 2.064 1.376 3.784 3.44 3.784h7.652c3.955 0 7.566-1.548 10.404-4.3l1.977-1.805c1.032-.946 2.58-.86 3.44.172l4.213 4.901c1.461 1.72 2.15 4.041 1.805 6.277l-.946 6.276c-.258 1.806.86 3.612 2.666 4.042.258.086.516.086.688.086 1.633 0 3.181-1.204 3.439-2.924l.946-6.534c.602-4.214-.602-8.513-3.44-11.78l-1.805-2.236c-1.032-1.203-.946-2.923.172-4.04l2.58-2.58c1.375-1.376 3.439-1.806 5.244-1.032 1.892.774 3.87 1.204 5.847 1.204 3.87 0 7.738-1.462 10.748-4.471 1.376-1.548 1.29-3.87-.258-5.16z" fill="#98B5FF" fill-opacity=".6"/></g><g filter="url(#filter3_f)"><path d="M82.277 28.301l.007.006.007.006c1.186.988 1.299 2.807.191 4.068-2.86 2.853-6.53 4.236-10.2 4.236-1.868 0-3.747-.406-5.558-1.146-2.094-.894-4.48-.392-6.065 1.193l-2.58 2.58c-1.386 1.386-1.503 3.543-.218 5.05l1.8 2.228.008.01.008.01c2.691 3.1 3.835 7.179 3.263 11.182l-.945 6.53v.001c-.2 1.327-1.41 2.284-2.697 2.284-.178 0-.322-.005-.451-.048l-.031-.01-.032-.008c-1.398-.333-2.304-1.75-2.097-3.203v-.003L57.632 57s0 0 0 0c.377-2.458-.378-4.997-1.976-6.877l-.003-.003-4.21-4.897c-1.148-1.373-3.188-1.458-4.517-.24 0 0 0 0 0 0l-1.977 1.805-.008.007-.009.008c-2.705 2.624-6.132 4.088-9.881 4.088h-7.653c-1.612 0-2.826-1.331-2.692-2.967.132-1.364 1.39-2.412 2.864-2.412h7.567c2.294 0 4.27-.962 6.003-2.512l.012-.012.012-.012L53.89 30.508h0l.005-.005c.915-.915 1.097-2.212.74-3.283-.36-1.08-1.295-2.004-2.66-2.122-2.62-.278-5.252.567-7.223 2.538l-1.204 1.204c-1.065 1.066-2.886 1.004-3.894-.138l-.007-.008-.008-.009c-.961-1.025-.82-2.797.241-3.857l1.032-1.032a14.352 14.352 0 0120.349 0l4.643 4.643c3.467 3.467 9.09 3.563 12.654.186l.007-.007.007-.007c1.066-1.066 2.682-1.206 3.705-.31z" stroke="#FFDFF4" stroke-opacity=".2" stroke-width="1.5"/></g><g filter="url(#filter4_bdi)"><path d="M76.964 17.59a5.629 5.629 0 11-11.257 0 5.629 5.629 0 0111.257 0z" stroke="#FF123D" stroke-width="2.5"/></g><g filter="url(#filter5_bdi)"><path d="M49 39.347l6.98-6.663a5.87 5.87 0 00.409-8.06v0a5.87 5.87 0 00-3.496-1.975L52 22.5" stroke="#98B5FF" stroke-opacity=".6" stroke-width="2" stroke-linecap="round" stroke-linejoin="round"/></g><defs><filter id="filter0_d" x="19" y="20" width="69.222" height="27.355" filterUnits="userSpaceOnUse" color-interpolation-filters="sRGB"><feFlood flood-opacity="0" result="BackgroundImageFix"/><feColorMatrix in="SourceAlpha" values="0 0 0 0 0 0 0 0 0 0 0 0 0 0 0 0 0 0 127 0"/><feOffset/><feGaussianBlur stdDeviation="5"/><feColorMatrix values="0 0 0 0 0.00833333 0 0 0 0 0.762 0 0 0 0 1 0 0 0 0.5 0"/><feBlend in2="BackgroundImageFix" result="effect1_dropShadow"/><feBlend in="SourceGraphic" in2="effect1_dropShadow" result="shape"/></filter><filter id="filter1_d" x="0" y="30" width="57.34" height="25.658" filterUnits="userSpaceOnUse" color-interpolation-filters="sRGB"><feFlood flood-opacity="0" result="BackgroundImageFix"/><feColorMatrix in="SourceAlpha" values="0 0 0 0 0 0 0 0 0 0 0 0 0 0 0 0 0 0 127 0"/><feOffset/><feGaussianBlur stdDeviation="5"/><feColorMatrix values="0 0 0 0 0.00833333 0 0 0 0 0.762 0 0 0 0 1 0 0 0 0.5 0"/><feBlend in2="BackgroundImageFix" result="effect1_dropShadow"/><feBlend in="SourceGraphic" in2="effect1_dropShadow" result="shape"/></filter><filter id="filter2_bdi" x="13.946" y="8.816" width="80.054" height="68.473" filterUnits="userSpaceOnUse" color-interpolation-filters="sRGB"><feFlood flood-opacity="0" result="BackgroundImageFix"/><feGaussianBlur in="BackgroundImage" stdDeviation="5"/><feComposite in2="SourceAlpha" operator="in" result="effect1_backgroundBlur"/><feColorMatrix in="SourceAlpha" values="0 0 0 0 0 0 0 0 0 0 0 0 0 0 0 0 0 0 127 0"/><feOffset dy="-2"/><feGaussianBlur stdDeviation="4"/><feColorMatrix values="0 0 0 0 0 0 0 0 0 0 0 0 0 0 0 0 0 0 0.1 0"/><feBlend in2="effect1_backgroundBlur" result="effect2_dropShadow"/><feBlend in="SourceGraphic" in2="effect2_dropShadow" result="shape"/><feColorMatrix in="SourceAlpha" values="0 0 0 0 0 0 0 0 0 0 0 0 0 0 0 0 0 0 127 0" result="hardAlpha"/><feOffset dy="-2"/><feGaussianBlur stdDeviation="3.5"/><feComposite in2="hardAlpha" operator="arithmetic" k2="-1" k3="1"/><feColorMatrix values="0 0 0 0 1 0 0 0 0 1 0 0 0 0 1 0 0 0 0.3 0"/><feBlend in2="shape" result="effect3_innerShadow"/></filter><filter id="filter3_f" x="22.946" y="17.816" width="62.054" height="50.473" filterUnits="userSpaceOnUse" color-interpolation-filters="sRGB"><feFlood flood-opacity="0" result="BackgroundImageFix"/><feBlend in="SourceGraphic" in2="BackgroundImageFix" result="shape"/><feGaussianBlur stdDeviation=".5" result="effect1_foregroundBlur"/></filter><filter id="filter4_bdi" x="54.457" y=".712" width="33.757" height="33.757" filterUnits="userSpaceOnUse" color-interpolation-filters="sRGB"><feFlood flood-opacity="0" result="BackgroundImageFix"/><feGaussianBlur in="BackgroundImage" stdDeviation="5"/><feComposite in2="SourceAlpha" operator="in" result="effect1_backgroundBlur"/><feColorMatrix in="SourceAlpha" values="0 0 0 0 0 0 0 0 0 0 0 0 0 0 0 0 0 0 127 0"/><feOffset dy="-2"/><feGaussianBlur stdDeviation="4"/><feColorMatrix values="0 0 0 0 0 0 0 0 0 0 0 0 0 0 0 0 0 0 0.1 0"/><feBlend in2="effect1_backgroundBlur" result="effect2_dropShadow"/><feBlend in="SourceGraphic" in2="effect2_dropShadow" result="shape"/><feColorMatrix in="SourceAlpha" values="0 0 0 0 0 0 0 0 0 0 0 0 0 0 0 0 0 0 127 0" result="hardAlpha"/><feOffset dy="-2"/><feGaussianBlur stdDeviation="3.5"/><feComposite in2="hardAlpha" operator="arithmetic" k2="-1" k3="1"/><feColorMatrix values="0 0 0 0 1 0 0 0 0 1 0 0 0 0 1 0 0 0 0.3 0"/><feBlend in2="shape" result="effect3_innerShadow"/></filter><filter id="filter5_bdi" x="38" y="11.5" width="30.797" height="38.847" filterUnits="userSpaceOnUse" color-interpolation-filters="sRGB"><feFlood flood-opacity="0" result="BackgroundImageFix"/><feGaussianBlur in="BackgroundImage" stdDeviation="5"/><feComposite in2="SourceAlpha" operator="in" result="effect1_backgroundBlur"/><feColorMatrix in="SourceAlpha" values="0 0 0 0 0 0 0 0 0 0 0 0 0 0 0 0 0 0 127 0"/><feOffset dy="-2"/><feGaussianBlur stdDeviation="4"/><feColorMatrix values="0 0 0 0 0 0 0 0 0 0 0 0 0 0 0 0 0 0 0.1 0"/><feBlend in2="effect1_backgroundBlur" result="effect2_dropShadow"/><feBlend in="SourceGraphic" in2="effect2_dropShadow" result="shape"/><feColorMatrix in="SourceAlpha" values="0 0 0 0 0 0 0 0 0 0 0 0 0 0 0 0 0 0 127 0" result="hardAlpha"/><feOffset dy="-2"/><feGaussianBlur stdDeviation="3.5"/><feComposite in2="hardAlpha" operator="arithmetic" k2="-1" k3="1"/><feColorMatrix values="0 0 0 0 1 0 0 0 0 1 0 0 0 0 1 0 0 0 0.3 0"/><feBlend in2="shape" result="effect3_innerShadow"/></filter><linearGradient id="paint0_linear" x1="77.615" y1="33.678" x2="30.212" y2="33.678" gradientUnits="userSpaceOnUse"><stop stop-color="#0075FF"/><stop offset="1" stop-color="#5AC4FF"/></linearGradient><linearGradient id="paint1_linear" x1="46.881" y1="42.829" x2="10.92" y2="42.829" gradientUnits="userSpaceOnUse"><stop stop-color="#0075FF"/><stop offset="1" stop-color="#5AC4FF"/></linearGradient></defs></svg>