<svg width="30" height="20" viewBox="0 0 30 20" fill="none" xmlns="http://www.w3.org/2000/svg">
<path d="M29.4827 20H0.517265C0.231621 20 0 19.7643 0 19.4737V0.526339C0 0.235684 0.231621 0 0.517265 0H29.4827C29.7684 0 30 0.235684 30 0.526339V19.4737C29.9999 19.7644 29.7683 20 29.4827 20Z" fill="#F5F5F5"/>
<path d="M29.9999 1.53853H0V0.526339C0 0.235684 0.231621 0 0.517265 0H29.4827C29.7684 0 30 0.235684 30 0.526339L29.9999 1.53853Z" fill="#FF4B55"/>
<path d="M29.9999 6.15382H0V7.6923H29.9999V6.15382Z" fill="#FF4B55"/>
<path d="M29.9999 3.07677H0V4.61524H29.9999V3.07677Z" fill="#FF4B55"/>
<path d="M29.9999 10.7693H0.517265C0.231621 10.7693 0 10.5336 0 10.2429V9.23074H29.9999V10.7693Z" fill="#FF4B55"/>
<path d="M29.9999 15.3851H0V16.9235H29.9999V15.3851Z" fill="#FF4B55"/>
<path d="M29.4827 20H0.517265C0.231621 20 0 19.7643 0 19.4737V18.4615H29.9999V19.4737C29.9999 19.7644 29.7683 20 29.4827 20Z" fill="#FF4B55"/>
<path d="M29.9999 12.308H0V13.8464H29.9999V12.308Z" fill="#FF4B55"/>
<path d="M13.335 0H0.512909C0.22967 0 0 0.238686 0 0.533118V10.3759C0 10.6703 0.22967 10.9091 0.512909 10.9091H13.3351C13.6183 10.9091 13.848 10.6703 13.848 10.3759V0.533118C13.8479 0.238686 13.6182 0 13.335 0Z" fill="#41479B"/>
<path d="M1.45257 0.966717L1.56706 1.3161L1.92899 1.3189C1.97587 1.31932 1.99526 1.38013 1.95759 1.40845L1.66644 1.62726L1.77565 1.97838C1.78983 2.02381 1.73892 2.06149 1.70077 2.0337L1.40634 1.8196L1.11191 2.03376C1.07376 2.06149 1.02296 2.02387 1.03702 1.97844L1.14624 1.62732L0.855089 1.40851C0.817414 1.38013 0.836808 1.31938 0.883683 1.31896L1.24562 1.31616L1.36011 0.966777C1.37487 0.921464 1.43769 0.921464 1.45257 0.966717Z" fill="#F5F5F5"/>
<path d="M1.45257 2.79428L1.56706 3.14366L1.92899 3.14646C1.97587 3.14688 1.99526 3.20769 1.95759 3.23601L1.66644 3.45483L1.77565 3.80594C1.78983 3.85137 1.73892 3.88905 1.70077 3.86127L1.40634 3.64717L1.11191 3.86133C1.07376 3.88905 1.02296 3.85143 1.03702 3.806L1.14624 3.45489L0.855089 3.23608C0.817414 3.2077 0.836808 3.14694 0.883683 3.14652L1.24562 3.14372L1.36011 2.79434C1.37487 2.74909 1.43769 2.74909 1.45257 2.79428Z" fill="#F5F5F5"/>
<path d="M1.45257 4.6219L1.56706 4.97128L1.92899 4.97409C1.97587 4.9745 1.99526 5.03532 1.95759 5.06364L1.66644 5.28245L1.77565 5.63356C1.78983 5.67899 1.73892 5.71667 1.70077 5.68889L1.40634 5.47479L1.11191 5.68895C1.07376 5.71667 1.02296 5.67905 1.03702 5.63362L1.14624 5.28251L0.855089 5.0637C0.817414 5.03532 0.836808 4.97456 0.883683 4.97414L1.24562 4.97134L1.36011 4.62196C1.37487 4.57671 1.43769 4.57671 1.45257 4.6219Z" fill="#F5F5F5"/>
<path d="M1.45257 6.44963L1.56706 6.79901L1.92899 6.80181C1.97587 6.80223 1.99526 6.86304 1.95759 6.89136L1.66644 7.11017L1.77565 7.46129C1.78983 7.50672 1.73892 7.5444 1.70077 7.51662L1.40634 7.30251L1.11191 7.51667C1.07376 7.5444 1.02296 7.50678 1.03702 7.46135L1.14624 7.11023L0.855089 6.89142C0.817414 6.86304 0.836808 6.80229 0.883683 6.80187L1.24562 6.79907L1.36011 6.44969C1.37487 6.40437 1.43769 6.40437 1.45257 6.44963Z" fill="#F5F5F5"/>
<path d="M1.45257 8.27725L1.56706 8.62663L1.92899 8.62943C1.97587 8.62985 1.99526 8.69066 1.95759 8.71898L1.66644 8.93779L1.77565 9.28891C1.78983 9.33434 1.73892 9.37202 1.70077 9.34424L1.40634 9.13013L1.11191 9.3443C1.07376 9.37202 1.02296 9.3344 1.03702 9.28897L1.14624 8.93785L0.855089 8.71904C0.817414 8.69066 0.836808 8.62991 0.883683 8.62949L1.24562 8.62669L1.36011 8.27731C1.37487 8.23194 1.43769 8.23194 1.45257 8.27725Z" fill="#F5F5F5"/>
<path d="M2.84686 1.86269L2.96135 2.21207L3.32328 2.21488C3.37016 2.21529 3.38955 2.27611 3.35187 2.30443L3.06072 2.52324L3.16994 2.87435C3.18412 2.91978 3.1332 2.95746 3.09506 2.92968L2.80063 2.71552L2.50619 2.92968C2.46805 2.9574 2.41725 2.91978 2.43131 2.87435L2.54053 2.52324L2.24938 2.30443C2.2117 2.27605 2.2311 2.21529 2.27797 2.21488L2.6399 2.21207L2.7544 1.86269C2.7691 1.8175 2.83203 1.8175 2.84686 1.86269Z" fill="#F5F5F5"/>
<path d="M2.84686 3.69043L2.96135 4.03982L3.32328 4.04262C3.37016 4.04304 3.38955 4.10385 3.35187 4.13217L3.06072 4.35098L3.16994 4.70209C3.18412 4.74752 3.1332 4.78521 3.09506 4.75742L2.80063 4.54326L2.50619 4.75742C2.46805 4.78515 2.41725 4.74758 2.43131 4.70209L2.54053 4.35098L2.24938 4.13217C2.2117 4.10379 2.2311 4.04304 2.27797 4.04262L2.6399 4.03982L2.7544 3.69043C2.7691 3.64518 2.83203 3.64518 2.84686 3.69043Z" fill="#F5F5F5"/>
<path d="M2.84686 5.51807L2.96135 5.86745L3.32328 5.87026C3.37016 5.87067 3.38955 5.93149 3.35187 5.95981L3.06072 6.17862L3.16994 6.52973C3.18412 6.57516 3.1332 6.61284 3.09506 6.58506L2.80063 6.3709L2.50619 6.58506C2.46805 6.61278 2.41725 6.57516 2.43131 6.52973L2.54053 6.17862L2.24938 5.95981C2.2117 5.93143 2.2311 5.87067 2.27797 5.87026L2.6399 5.86745L2.7544 5.51807C2.7691 5.47282 2.83203 5.47282 2.84686 5.51807Z" fill="#F5F5F5"/>
<path d="M2.84686 7.34566L2.96135 7.69504L3.32328 7.69785C3.37016 7.69826 3.38955 7.75908 3.35187 7.7874L3.06072 8.00621L3.16994 8.35732C3.18412 8.40275 3.1332 8.44043 3.09506 8.41265L2.80063 8.19849L2.50619 8.41265C2.46805 8.44037 2.41725 8.40275 2.43131 8.35732L2.54053 8.00621L2.24938 7.7874C2.2117 7.75902 2.2311 7.69826 2.27797 7.69785L2.6399 7.69504L2.7544 7.34566C2.7691 7.30047 2.83203 7.30047 2.84686 7.34566Z" fill="#F5F5F5"/>
<path d="M4.24065 0.966679L4.35515 1.31606L4.71708 1.31886C4.76395 1.31928 4.78335 1.38009 4.74567 1.40841L4.45452 1.62723L4.56374 1.97834C4.57792 2.02377 4.527 2.06145 4.48886 2.03367L4.19442 1.81951L3.89999 2.03367C3.86185 2.06139 3.81105 2.02377 3.82511 1.97834L3.93433 1.62723L3.64318 1.40841C3.6055 1.38004 3.62489 1.31928 3.67177 1.31886L4.0337 1.31606L4.14819 0.966679C4.16296 0.921426 4.22583 0.921426 4.24065 0.966679Z" fill="#F5F5F5"/>
<path d="M4.24065 2.79427L4.35515 3.14365L4.71708 3.14646C4.76395 3.14687 4.78335 3.20769 4.74567 3.23601L4.45452 3.45482L4.56374 3.80593C4.57792 3.85136 4.527 3.88904 4.48886 3.86126L4.19442 3.6471L3.89999 3.86126C3.86185 3.88898 3.81105 3.85136 3.82511 3.80593L3.93433 3.45482L3.64318 3.23601C3.6055 3.20763 3.62489 3.14687 3.67177 3.14646L4.0337 3.14365L4.14819 2.79427C4.16296 2.74908 4.22583 2.74908 4.24065 2.79427Z" fill="#F5F5F5"/>
<path d="M4.24065 4.62191L4.35515 4.97129L4.71708 4.97409C4.76395 4.97451 4.78335 5.03532 4.74567 5.06364L4.45452 5.28246L4.56374 5.63357C4.57792 5.679 4.527 5.71668 4.48886 5.6889L4.19442 5.47473L3.89999 5.6889C3.86185 5.71662 3.81105 5.679 3.82511 5.63357L3.93433 5.28246L3.64318 5.06364C3.6055 5.03526 3.62489 4.97451 3.67177 4.97409L4.0337 4.97129L4.14819 4.62191C4.16296 4.57671 4.22583 4.57671 4.24065 4.62191Z" fill="#F5F5F5"/>
<path d="M4.24065 6.44965L4.35515 6.79903L4.71708 6.80183C4.76395 6.80225 4.78335 6.86307 4.74567 6.89139L4.45452 7.1102L4.56374 7.46131C4.57792 7.50674 4.527 7.54442 4.48886 7.51664L4.19442 7.30248L3.89999 7.51664C3.86185 7.54436 3.81105 7.50674 3.82511 7.46131L3.93433 7.1102L3.64318 6.89139C3.6055 6.86301 3.62489 6.80225 3.67177 6.80183L4.0337 6.79903L4.14819 6.44965C4.16296 6.4044 4.22583 6.4044 4.24065 6.44965Z" fill="#F5F5F5"/>
<path d="M4.24065 8.27727L4.35515 8.62665L4.71708 8.62945C4.76395 8.62987 4.78335 8.69069 4.74567 8.71901L4.45452 8.93782L4.56374 9.28893C4.57792 9.33436 4.527 9.37204 4.48886 9.34426L4.19442 9.1301L3.89999 9.34426C3.86185 9.37198 3.81105 9.33436 3.82511 9.28893L3.93433 8.93782L3.64318 8.71901C3.6055 8.69063 3.62489 8.62987 3.67177 8.62945L4.0337 8.62665L4.14819 8.27727C4.16296 8.23196 4.22583 8.23196 4.24065 8.27727Z" fill="#F5F5F5"/>
<path d="M5.63494 1.86269L5.74943 2.21207L6.11137 2.21488C6.15824 2.21529 6.17764 2.27611 6.13996 2.30443L5.84881 2.52324L5.95803 2.87435C5.97221 2.91978 5.92129 2.95746 5.88314 2.92968L5.58871 2.71552L5.29428 2.92968C5.25613 2.9574 5.20533 2.91978 5.2194 2.87435L5.32861 2.52324L5.03746 2.30443C4.99979 2.27605 5.01918 2.21529 5.06606 2.21488L5.42799 2.21207L5.54248 1.86269C5.55719 1.8175 5.62012 1.8175 5.63494 1.86269Z" fill="#F5F5F5"/>
<path d="M5.63494 3.69043L5.74943 4.03982L6.11137 4.04262C6.15824 4.04304 6.17764 4.10385 6.13996 4.13217L5.84881 4.35098L5.95803 4.70209C5.97221 4.74752 5.92129 4.78521 5.88314 4.75742L5.58871 4.54326L5.29428 4.75742C5.25613 4.78515 5.20533 4.74758 5.2194 4.70209L5.32861 4.35098L5.03746 4.13217C4.99979 4.10379 5.01918 4.04304 5.06606 4.04262L5.42799 4.03982L5.54248 3.69043C5.55719 3.64518 5.62012 3.64518 5.63494 3.69043Z" fill="#F5F5F5"/>
<path d="M5.63494 5.51807L5.74943 5.86745L6.11137 5.87026C6.15824 5.87067 6.17764 5.93149 6.13996 5.95981L5.84881 6.17862L5.95803 6.52973C5.97221 6.57516 5.92129 6.61284 5.88314 6.58506L5.58871 6.3709L5.29428 6.58506C5.25613 6.61278 5.20533 6.57516 5.2194 6.52973L5.32861 6.17862L5.03746 5.95981C4.99979 5.93143 5.01918 5.87067 5.06606 5.87026L5.42799 5.86745L5.54248 5.51807C5.55719 5.47282 5.62012 5.47282 5.63494 5.51807Z" fill="#F5F5F5"/>
<path d="M5.63494 7.34566L5.74943 7.69504L6.11137 7.69785C6.15824 7.69826 6.17764 7.75908 6.13996 7.7874L5.84881 8.00621L5.95803 8.35732C5.97221 8.40275 5.92129 8.44043 5.88314 8.41265L5.58871 8.19849L5.29428 8.41265C5.25613 8.44037 5.20533 8.40275 5.2194 8.35732L5.32861 8.00621L5.03746 7.7874C4.99979 7.75902 5.01918 7.69826 5.06606 7.69785L5.42799 7.69504L5.54248 7.34566C5.55719 7.30047 5.62012 7.30047 5.63494 7.34566Z" fill="#F5F5F5"/>
<path d="M7.02904 0.966679L7.14354 1.31606L7.50547 1.31886C7.55234 1.31928 7.57174 1.38009 7.53406 1.40841L7.24291 1.62723L7.35213 1.97834C7.36631 2.02377 7.31539 2.06145 7.27725 2.03367L6.98275 1.81951L6.68832 2.03367C6.65018 2.06139 6.59938 2.02377 6.61344 1.97834L6.72266 1.62723L6.43151 1.40841C6.39383 1.38004 6.41322 1.31928 6.4601 1.31886L6.82203 1.31606L6.93652 0.966679C6.95135 0.921426 7.01422 0.921426 7.02904 0.966679Z" fill="#F5F5F5"/>
<path d="M7.02904 2.79427L7.14354 3.14365L7.50547 3.14646C7.55234 3.14687 7.57174 3.20769 7.53406 3.23601L7.24291 3.45482L7.35213 3.80593C7.36631 3.85136 7.31539 3.88904 7.27725 3.86126L6.98275 3.6471L6.68832 3.86126C6.65018 3.88898 6.59938 3.85136 6.61344 3.80593L6.72266 3.45482L6.43151 3.23601C6.39383 3.20763 6.41322 3.14687 6.4601 3.14646L6.82203 3.14365L6.93652 2.79427C6.95135 2.74908 7.01422 2.74908 7.02904 2.79427Z" fill="#F5F5F5"/>
<path d="M7.02904 4.62191L7.14354 4.97129L7.50547 4.97409C7.55234 4.97451 7.57174 5.03532 7.53406 5.06364L7.24291 5.28246L7.35213 5.63357C7.36631 5.679 7.31539 5.71668 7.27725 5.6889L6.98275 5.47473L6.68832 5.6889C6.65018 5.71662 6.59938 5.679 6.61344 5.63357L6.72266 5.28246L6.43151 5.06364C6.39383 5.03526 6.41322 4.97451 6.4601 4.97409L6.82203 4.97129L6.93652 4.62191C6.95135 4.57671 7.01422 4.57671 7.02904 4.62191Z" fill="#F5F5F5"/>
<path d="M7.02904 6.44965L7.14354 6.79903L7.50547 6.80183C7.55234 6.80225 7.57174 6.86307 7.53406 6.89139L7.24291 7.1102L7.35213 7.46131C7.36631 7.50674 7.31539 7.54442 7.27725 7.51664L6.98275 7.30248L6.68832 7.51664C6.65018 7.54436 6.59938 7.50674 6.61344 7.46131L6.72266 7.1102L6.43151 6.89139C6.39383 6.86301 6.41322 6.80225 6.4601 6.80183L6.82203 6.79903L6.93652 6.44965C6.95135 6.4044 7.01422 6.4044 7.02904 6.44965Z" fill="#F5F5F5"/>
<path d="M7.02904 8.27727L7.14354 8.62665L7.50547 8.62945C7.55234 8.62987 7.57174 8.69069 7.53406 8.71901L7.24291 8.93782L7.35213 9.28893C7.36631 9.33436 7.31539 9.37204 7.27725 9.34426L6.98275 9.1301L6.68832 9.34426C6.65018 9.37198 6.59938 9.33436 6.61344 9.28893L6.72266 8.93782L6.43151 8.71901C6.39383 8.69063 6.41322 8.62987 6.4601 8.62945L6.82203 8.62665L6.93652 8.27727C6.95135 8.23196 7.01422 8.23196 7.02904 8.27727Z" fill="#F5F5F5"/>
<path d="M8.42327 1.86269L8.53776 2.21207L8.8997 2.21488C8.94657 2.21529 8.96597 2.27611 8.92829 2.30443L8.63714 2.52324L8.74636 2.87435C8.76054 2.91978 8.70962 2.95746 8.67147 2.92968L8.37704 2.71552L8.08261 2.92968C8.04446 2.9574 7.99366 2.91978 8.00773 2.87435L8.11694 2.52324L7.82579 2.30443C7.78812 2.27605 7.80751 2.21529 7.85439 2.21488L8.21632 2.21207L8.33081 1.86269C8.34564 1.8175 8.40845 1.8175 8.42327 1.86269Z" fill="#F5F5F5"/>
<path d="M8.42327 3.69043L8.53776 4.03982L8.8997 4.04262C8.94657 4.04304 8.96597 4.10385 8.92829 4.13217L8.63714 4.35098L8.74636 4.70209C8.76054 4.74752 8.70962 4.78521 8.67147 4.75742L8.37704 4.54326L8.08261 4.75742C8.04446 4.78515 7.99366 4.74758 8.00773 4.70209L8.11694 4.35098L7.82579 4.13217C7.78812 4.10379 7.80751 4.04304 7.85439 4.04262L8.21632 4.03982L8.33081 3.69043C8.34564 3.64518 8.40845 3.64518 8.42327 3.69043Z" fill="#F5F5F5"/>
<path d="M8.42327 5.51807L8.53776 5.86745L8.8997 5.87026C8.94657 5.87067 8.96597 5.93149 8.92829 5.95981L8.63714 6.17862L8.74636 6.52973C8.76054 6.57516 8.70962 6.61284 8.67147 6.58506L8.37704 6.3709L8.08261 6.58506C8.04446 6.61278 7.99366 6.57516 8.00773 6.52973L8.11694 6.17862L7.82579 5.95981C7.78812 5.93143 7.80751 5.87067 7.85439 5.87026L8.21632 5.86745L8.33081 5.51807C8.34564 5.47282 8.40845 5.47282 8.42327 5.51807Z" fill="#F5F5F5"/>
<path d="M8.42327 7.34566L8.53776 7.69504L8.8997 7.69785C8.94657 7.69826 8.96597 7.75908 8.92829 7.7874L8.63714 8.00621L8.74636 8.35732C8.76054 8.40275 8.70962 8.44043 8.67147 8.41265L8.37704 8.19849L8.08261 8.41265C8.04446 8.44037 7.99366 8.40275 8.00773 8.35732L8.11694 8.00621L7.82579 7.7874C7.78812 7.75902 7.80751 7.69826 7.85439 7.69785L8.21632 7.69504L8.33081 7.34566C8.34564 7.30047 8.40845 7.30047 8.42327 7.34566Z" fill="#F5F5F5"/>
<path d="M9.81731 0.966679L9.93181 1.31606L10.2937 1.31886C10.3406 1.31928 10.36 1.38009 10.3223 1.40841L10.0312 1.62723L10.1404 1.97834C10.1546 2.02377 10.1037 2.06145 10.0655 2.03367L9.77108 1.81951L9.47665 2.03367C9.43851 2.06139 9.38771 2.02377 9.40177 1.97834L9.51099 1.62723L9.21984 1.40841C9.18216 1.38004 9.20155 1.31928 9.24843 1.31886L9.61036 1.31606L9.72485 0.966679C9.73956 0.921426 9.80249 0.921426 9.81731 0.966679Z" fill="#F5F5F5"/>
<path d="M9.81731 2.79427L9.93181 3.14365L10.2937 3.14646C10.3406 3.14687 10.36 3.20769 10.3223 3.23601L10.0312 3.45482L10.1404 3.80593C10.1546 3.85136 10.1037 3.88904 10.0655 3.86126L9.77108 3.6471L9.47665 3.86126C9.43851 3.88898 9.38771 3.85136 9.40177 3.80593L9.51099 3.45482L9.21984 3.23601C9.18216 3.20763 9.20155 3.14687 9.24843 3.14646L9.61036 3.14365L9.72485 2.79427C9.73956 2.74908 9.80249 2.74908 9.81731 2.79427Z" fill="#F5F5F5"/>
<path d="M9.81731 4.62191L9.93181 4.97129L10.2937 4.97409C10.3406 4.97451 10.36 5.03532 10.3223 5.06364L10.0312 5.28246L10.1404 5.63357C10.1546 5.679 10.1037 5.71668 10.0655 5.6889L9.77108 5.47473L9.47665 5.6889C9.43851 5.71662 9.38771 5.679 9.40177 5.63357L9.51099 5.28246L9.21984 5.06364C9.18216 5.03526 9.20155 4.97451 9.24843 4.97409L9.61036 4.97129L9.72485 4.62191C9.73956 4.57671 9.80249 4.57671 9.81731 4.62191Z" fill="#F5F5F5"/>
<path d="M9.81731 6.44965L9.93181 6.79903L10.2937 6.80183C10.3406 6.80225 10.36 6.86307 10.3223 6.89139L10.0312 7.1102L10.1404 7.46131C10.1546 7.50674 10.1037 7.54442 10.0655 7.51664L9.77108 7.30248L9.47665 7.51664C9.43851 7.54436 9.38771 7.50674 9.40177 7.46131L9.51099 7.1102L9.21984 6.89139C9.18216 6.86301 9.20155 6.80225 9.24843 6.80183L9.61036 6.79903L9.72485 6.44965C9.73956 6.4044 9.80249 6.4044 9.81731 6.44965Z" fill="#F5F5F5"/>
<path d="M9.81731 8.27727L9.93181 8.62665L10.2937 8.62945C10.3406 8.62987 10.36 8.69069 10.3223 8.71901L10.0312 8.93782L10.1404 9.28893C10.1546 9.33436 10.1037 9.37204 10.0655 9.34426L9.77108 9.1301L9.47665 9.34426C9.43851 9.37198 9.38771 9.33436 9.40177 9.28893L9.51099 8.93782L9.21984 8.71901C9.18216 8.69063 9.20155 8.62987 9.24843 8.62945L9.61036 8.62665L9.72485 8.27727C9.73956 8.23196 9.80249 8.23196 9.81731 8.27727Z" fill="#F5F5F5"/>
<path d="M11.2114 1.86269L11.3258 2.21207L11.6878 2.21488C11.7347 2.21529 11.7541 2.27611 11.7164 2.30443L11.4252 2.52324L11.5344 2.87435C11.5486 2.91978 11.4977 2.95746 11.4596 2.92968L11.1651 2.71552L10.8707 2.92968C10.8325 2.9574 10.7817 2.91978 10.7958 2.87435L10.905 2.52324L10.6139 2.30443C10.5762 2.27605 10.5956 2.21529 10.6425 2.21488L11.0044 2.21207L11.1189 1.86269C11.1337 1.8175 11.1966 1.8175 11.2114 1.86269Z" fill="#F5F5F5"/>
<path d="M11.2114 3.69043L11.3258 4.03982L11.6878 4.04262C11.7347 4.04304 11.7541 4.10385 11.7164 4.13217L11.4252 4.35098L11.5344 4.70209C11.5486 4.74752 11.4977 4.78521 11.4596 4.75742L11.1651 4.54326L10.8707 4.75742C10.8325 4.78515 10.7817 4.74758 10.7958 4.70209L10.905 4.35098L10.6139 4.13217C10.5762 4.10379 10.5956 4.04304 10.6425 4.04262L11.0044 4.03982L11.1189 3.69043C11.1337 3.64518 11.1966 3.64518 11.2114 3.69043Z" fill="#F5F5F5"/>
<path d="M11.2114 5.51807L11.3258 5.86745L11.6878 5.87026C11.7347 5.87067 11.7541 5.93149 11.7164 5.95981L11.4252 6.17862L11.5344 6.52973C11.5486 6.57516 11.4977 6.61284 11.4596 6.58506L11.1651 6.3709L10.8707 6.58506C10.8325 6.61278 10.7817 6.57516 10.7958 6.52973L10.905 6.17862L10.6139 5.95981C10.5762 5.93143 10.5956 5.87067 10.6425 5.87026L11.0044 5.86745L11.1189 5.51807C11.1337 5.47282 11.1966 5.47282 11.2114 5.51807Z" fill="#F5F5F5"/>
<path d="M11.2114 7.34566L11.3258 7.69504L11.6878 7.69785C11.7347 7.69826 11.7541 7.75908 11.7164 7.7874L11.4252 8.00621L11.5344 8.35732C11.5486 8.40275 11.4977 8.44043 11.4596 8.41265L11.1651 8.19849L10.8707 8.41265C10.8325 8.44037 10.7817 8.40275 10.7958 8.35732L10.905 8.00621L10.6139 7.7874C10.5762 7.75902 10.5956 7.69826 10.6425 7.69785L11.0044 7.69504L11.1189 7.34566C11.1337 7.30047 11.1966 7.30047 11.2114 7.34566Z" fill="#F5F5F5"/>
<path d="M12.6056 0.966679L12.7201 1.31606L13.0821 1.31886C13.1289 1.31928 13.1483 1.38009 13.1107 1.40841L12.8195 1.62723L12.9287 1.97834C12.9429 2.02377 12.892 2.06145 12.8538 2.03367L12.5594 1.81951L12.265 2.03367C12.2268 2.06139 12.176 2.02377 12.1901 1.97834L12.2993 1.62723L12.0082 1.40841C11.9705 1.38004 11.9899 1.31928 12.0368 1.31886L12.3987 1.31606L12.5132 0.966679C12.5279 0.921426 12.5908 0.921426 12.6056 0.966679Z" fill="#F5F5F5"/>
<path d="M12.6056 2.79427L12.7201 3.14365L13.0821 3.14646C13.1289 3.14687 13.1483 3.20769 13.1107 3.23601L12.8195 3.45482L12.9287 3.80593C12.9429 3.85136 12.892 3.88904 12.8538 3.86126L12.5594 3.6471L12.265 3.86126C12.2268 3.88898 12.176 3.85136 12.1901 3.80593L12.2993 3.45482L12.0082 3.23601C11.9705 3.20763 11.9899 3.14687 12.0368 3.14646L12.3987 3.14365L12.5132 2.79427C12.5279 2.74908 12.5908 2.74908 12.6056 2.79427Z" fill="#F5F5F5"/>
<path d="M12.6056 4.62191L12.7201 4.97129L13.0821 4.97409C13.1289 4.97451 13.1483 5.03532 13.1107 5.06364L12.8195 5.28246L12.9287 5.63357C12.9429 5.679 12.892 5.71668 12.8538 5.6889L12.5594 5.47473L12.265 5.6889C12.2268 5.71662 12.176 5.679 12.1901 5.63357L12.2993 5.28246L12.0082 5.06364C11.9705 5.03526 11.9899 4.97451 12.0368 4.97409L12.3987 4.97129L12.5132 4.62191C12.5279 4.57671 12.5908 4.57671 12.6056 4.62191Z" fill="#F5F5F5"/>
<path d="M12.6056 6.44965L12.7201 6.79903L13.0821 6.80183C13.1289 6.80225 13.1483 6.86307 13.1107 6.89139L12.8195 7.1102L12.9287 7.46131C12.9429 7.50674 12.892 7.54442 12.8538 7.51664L12.5594 7.30248L12.265 7.51664C12.2268 7.54436 12.176 7.50674 12.1901 7.46131L12.2993 7.1102L12.0082 6.89139C11.9705 6.86301 11.9899 6.80225 12.0368 6.80183L12.3987 6.79903L12.5132 6.44965C12.5279 6.4044 12.5908 6.4044 12.6056 6.44965Z" fill="#F5F5F5"/>
<path d="M12.6056 8.27727L12.7201 8.62665L13.0821 8.62945C13.1289 8.62987 13.1483 8.69069 13.1107 8.71901L12.8195 8.93782L12.9287 9.28893C12.9429 9.33436 12.892 9.37204 12.8538 9.34426L12.5594 9.1301L12.265 9.34426C12.2268 9.37198 12.176 9.33436 12.1901 9.28893L12.2993 8.93782L12.0082 8.71901C11.9705 8.69063 11.9899 8.62987 12.0368 8.62945L12.3987 8.62665L12.5132 8.27727C12.5279 8.23196 12.5908 8.23196 12.6056 8.27727Z" fill="#F5F5F5"/>
</svg>
