<svg width="191" height="30" fill="none" xmlns="http://www.w3.org/2000/svg"><path d="M17.95.042a18.694 18.694 0 019.63 1.939c4.387 2.161 7.883 6.039 9.504 10.616a18.668 18.668 0 011.113 6.325v7.977c0 .318 0 .668-.064.986-.19.794-.763 1.525-1.525 1.875-.54.254-1.145.286-1.685.19-1.208-.222-2.161-1.366-2.161-2.606v-7.437c.032-.7.032-1.462-.35-2.066-.604-1.144-2.13-1.685-3.305-1.208-1.017.35-1.748 1.399-1.78 2.48v7.532c0 .477.031.954-.128 1.399-.254.89-.985 1.589-1.875 1.843-1.176.318-2.51-.19-3.083-1.271-.413-.636-.381-1.43-.35-2.162v-7.5c-.031-1.272-1.08-2.416-2.32-2.575a2.76 2.76 0 00-2.288.73c-.54.51-.826 1.24-.826 1.971v7.279c0 .604.063 1.24-.16 1.812-.349 1.049-1.398 1.811-2.51 1.78-1.145.063-2.257-.732-2.607-1.78-.19-.54-.159-1.081-.159-1.653v-7.533c0-1.24-.985-2.384-2.193-2.606a2.755 2.755 0 00-2.892 1.335c-.222.413-.35.89-.35 1.366v8.169c0 .795-.35 1.59-.953 2.098-.922.794-2.416.858-3.37.127C.566 28.997.152 28.17.152 27.312V19.05c0-3.115.795-6.23 2.289-8.995a18.877 18.877 0 014.895-5.848C10.29 1.726 14.073.264 17.95.042zM92.229 9.61h-4.132c.159-2.892.763-5.498 3.4-7.15C94.137.837 97.029.456 100.049.71c1.621.127 3.242.477 4.735 1.176 2.639 1.208 3.942 3.274 3.942 6.166v15.352c0 1.875.381 2.225 2.256 2.034.191-.032.414-.063.604-.095.032.095.032.19.032.254v3.115c-1.494.508-3.019.667-4.513.254-1.113-.318-1.812-1.112-2.193-2.161-.191-.54-.318-1.113-.477-1.716-.159.19-.286.35-.445.508-3.274 3.306-7.151 4.704-11.728 3.528-3.242-.826-5.467-3.782-5.563-7.151a12.145 12.145 0 01.318-3.21c.604-2.416 2.32-3.878 4.482-4.864 1.525-.699 3.178-.89 4.83-1.112 1.94-.254 3.847-.477 5.786-.763 1.303-.19 1.97-.89 2.161-2.193.413-2.638-.763-4.386-3.306-5.022a10.879 10.879 0 00-4.64-.159c-2.288.414-3.56 1.717-4.005 3.973.032.318-.032.636-.095.986zm12.173 5.086c-1.907 1.017-3.75 1.271-5.626 1.558-1.557.254-3.146.476-4.672.953-2.002.668-2.924 2.32-2.733 4.545.159 1.844 1.398 3.338 3.4 3.655 3.084.509 5.817-.35 7.978-2.638.636-.667 1.145-1.62 1.272-2.51.286-1.78.254-3.592.381-5.563zm58.896 5.34c-.095.445-.159.826-.254 1.176-1.78 5.435-5.404 7.755-9.79 8.264-7.596.826-11.951-4.132-13.063-9.408-.89-4.196-.763-8.36 1.081-12.3 1.748-3.72 4.545-6.167 8.708-6.898 4.99-.89 12.047 1.59 13.223 9.376.317 2.003.381 4.069.572 6.167H144.45c.159 2.86.604 5.53 2.702 7.596.858.858 1.97 1.271 3.178 1.494 3.909.699 7.151-1.176 8.423-4.959.127-.413.318-.54.731-.508h3.814zm-18.689-7.31h14.462c-.159-1.685-.445-3.242-1.24-4.704-.763-1.399-1.875-2.416-3.401-2.925-4.99-1.716-10.139 2.257-9.821 7.628zm29.082 15.828h-4.386V1.284h4.164v3.813c.318-.35.508-.572.699-.794 2.988-3.401 6.738-4.291 10.997-3.242 2.956.73 4.609 2.829 5.181 5.753.223 1.208.381 2.447.381 3.655.032 5.848.032 11.696.032 17.545 0 .159-.032.317-.032.508h-4.481v-.73c0-5.468.032-10.934-.032-16.401 0-1.208-.191-2.448-.54-3.624-.572-1.907-2.098-2.924-4.1-3.02-3.655-.126-6.548 1.812-7.438 5.054-.318 1.176-.413 2.416-.413 3.656-.032 4.799-.032 9.566-.032 14.302v.795zm-57.815-27.27h4.227v11.569c.255-.255.414-.382.573-.54 3.464-3.529 6.928-7.088 10.393-10.617.286-.317.572-.444 1.017-.444 1.621.031 3.274 0 5.054 0-.255.254-.382.413-.541.572-3.051 3.05-6.07 6.134-9.154 9.153-.349.35-.349.572-.127.954 3.338 5.308 6.643 10.616 9.949 15.924.127.19.222.381.381.667-.222.032-.381.032-.572.032h-4.545c-.413 0-.604-.159-.826-.477-2.543-4.259-5.086-8.518-7.629-12.809-.127-.19-.222-.381-.381-.604-1.176 1.176-2.32 2.289-3.464 3.465-.159.159-.191.445-.191.667v9.726h-2.448c-.572 0-1.366.16-1.684-.159-.286-.254-.127-1.08-.127-1.652V2.014c.095-.159.095-.413.095-.73zm-48.788-.032c-3.433 3.4-6.77 6.738-10.14 10.075a5091.844 5091.844 0 0110.744 17.227c-.286 0-.477.032-.668.032h-4.418c-.413 0-.667-.16-.89-.509a4524.81 4524.81 0 01-7.628-12.809c-.095-.19-.223-.35-.381-.604-.636.668-1.208 1.399-1.907 1.907-1.43 1.081-1.844 2.416-1.749 4.196.16 2.32.032 4.672.032 6.992v.763h-4.195V1.283h4.195v11.379c.096.063.19.127.255.19.127-.19.19-.412.317-.571 3.433-3.528 6.897-7.025 10.33-10.585.318-.317.604-.476 1.08-.444 1.431.031 2.861 0 4.292 0h.73zm8.39 4.545C77.609 2.682 79.866.076 84.06.838v4.673c-1.112.063-2.225.031-3.273.254-2.575.54-4.577 2.892-4.99 5.753-.064.572-.128 1.144-.128 1.716v15.352h-4.322V1.346h4.132v4.45z" fill="#fff"/></svg>