<svg width="103" height="30" fill="none" xmlns="http://www.w3.org/2000/svg"><path d="M10.506 3.729s.102-.257.342-.24c.222.018.29.291.29.291s7.168 17.533 7.424 18.166c.257.633.41 1.043.582 1.146.085.051.308.034.393.034h1.745a.384.384 0 00.393-.376c0-.052-.017-.12-.017-.12L12.421.274s-.068-.171-.188-.223A.851.851 0 0011.96 0H9.616c-.085 0-.17 0-.24.051-.085.069-.136.171-.136.171S.277 21.912.123 22.271c-.086.188-.188.53-.068.701.102.154.239.154.444.154h12.23a.384.384 0 00.394-.376c0-.052 0-.086-.017-.12l-.428-1.47a.409.409 0 00-.36-.275l-.615-.05-7.851-.531 6.654-16.575zm20.731 3.659c-.975 0-2.549.137-3.9.65-.89.342-1.728.958-2.36 1.66-.633.7-1.147 1.556-1.523 2.514-.376.975-.564 2.035-.564 3.164 0 1.232.188 2.327.581 3.284.377.958.89 1.762 1.523 2.412a6.199 6.199 0 002.189 1.506c.821.342 2.138.513 3.01.513 3.37 0 4.704-1.198 4.704-1.198v1.112c0 1.625-.393 2.806-1.197 3.541-.787.718-1.779 1.06-3.301 1.043-1.505-.017-3.199-.718-3.712-.906-.308-.12-.565-.052-.684.222l-.582 1.386c-.085.222-.034.496.188.598 4.533 1.933 8.194 1.078 9.921-.564.616-.582 1.095-1.386 1.437-2.292.342-.907.496-2.002.496-3.267V8.876a.45.45 0 00-.273-.427c-.736-.325-3.182-1.06-5.953-1.06zm3.54 11.597c-.393.48-1.795 1.848-4.498 1.762-.633-.017-1.232-.12-1.779-.376a4.253 4.253 0 01-1.488-1.112 5.447 5.447 0 01-1.026-1.745c-.257-.684-.377-1.436-.377-2.292 0-.89.137-1.659.377-2.343a5.386 5.386 0 011.026-1.728c.428-.479 1.163-.923 1.728-1.146 2.275-.89 6.02.103 6.02.103v8.877h.018zM63.84 9.528c-.548-.65-2.48-2.087-5.474-2.087-1.043 0-2.463.257-3.438.719-.838.393-1.505.838-2.121 1.556-.616.719-1.078 1.574-1.42 2.55-.342.974-.496 2.035-.496 3.18 0 1.284.137 2.43.496 3.405.565 1.522 1.865 2.89 3.695 3.626 2.84 1.146 6.996.547 8.946-.36a.485.485 0 00.256-.564l-.376-1.351c-.068-.274-.376-.41-.633-.308-.496.205-1.009.376-1.54.513-.7.188-4.737 1.01-6.841-.753-.89-.735-1.488-2.138-1.454-3.113h11.494c.24 0 .462-.188.48-.444a23.6 23.6 0 00.05-1.574 8.97 8.97 0 00-.41-2.737 6.266 6.266 0 00-1.214-2.258zm-10.452 4.858c.154-1.54.633-2.531 1.403-3.335.804-.839 2.104-1.318 3.558-1.318 1.317 0 2.822.411 3.575 1.215.753.804 1.112 1.95 1.112 3.455h-9.648v-.017zm23.28 6.824a.467.467 0 00-.598-.308 4.2 4.2 0 01-.496.137c-.36.086-.719.137-1.095.137-.787 0-1.403-.257-1.848-.77-.444-.513-.667-1.3-.667-2.36V1.779a.478.478 0 00-.479-.48h-1.71a.478.478 0 00-.48.48v16.523c0 .924.12 1.71.36 2.36.24.65.582 1.181 1.026 1.592.428.41.941.718 1.523.906a6.136 6.136 0 001.899.291c.632 0 1.197-.051 1.727-.171a8.21 8.21 0 00.89-.24.46.46 0 00.29-.581l-.342-1.249zm9.562 0a.46.46 0 00-.598-.308 4.2 4.2 0 01-.497.137 4.65 4.65 0 01-1.094.137c-.787 0-1.403-.257-1.848-.77-.444-.513-.667-1.3-.667-2.36V1.779a.478.478 0 00-.479-.48h-1.71a.478.478 0 00-.48.48v16.523c0 .924.12 1.71.377 2.36.24.65.582 1.181 1.01 1.592.427.41.94.718 1.522.906a6.134 6.134 0 001.898.291 7.77 7.77 0 001.728-.171c.325-.069.616-.154.89-.24a.46.46 0 00.29-.581l-.342-1.249zm15.823-9.116a7.44 7.44 0 00-1.625-2.497 7.303 7.303 0 00-2.43-1.591 7.963 7.963 0 00-2.993-.565 8.076 8.076 0 00-3.027.565 6.9 6.9 0 00-2.412 1.59c-.684.685-1.215 1.523-1.608 2.515-.393.992-.582 2.104-.582 3.353 0 1.18.189 2.258.582 3.233.376.992.907 1.83 1.59 2.531a7.361 7.361 0 002.413 1.642c.923.394 1.95.582 3.044.582 1.078 0 2.087-.188 3.028-.582a6.787 6.787 0 002.429-1.642 7.357 7.357 0 001.608-2.549c.376-.992.581-2.103.581-3.318-.017-1.18-.205-2.292-.598-3.267zm-2.463 5.662a5.117 5.117 0 01-.975 1.779 4.47 4.47 0 01-1.54 1.163c-.616.274-1.3.41-2.07.41a4.27 4.27 0 01-1.967-.461 5.168 5.168 0 01-1.556-1.232 5.464 5.464 0 01-1.027-1.83 6.754 6.754 0 01-.359-2.19c0-1.693.428-3.044 1.3-4.07.873-1.027 2.07-1.54 3.626-1.54.702 0 1.352.154 1.968.462a5.167 5.167 0 011.556 1.231 5.471 5.471 0 011.026 1.796c.24.685.377 1.42.377 2.173-.017.855-.137 1.625-.36 2.309zM49.334 7.918c-1.522-.616-4.173-.565-4.96-.377-1.95.48-3.113.941-3.113 4.516v10.571c0 .257.205.479.479.479h1.71a.478.478 0 00.48-.479v-6.671c0-4.704.239-5.457.94-5.901.701-.428 3.13-.103 3.78.085.223.052.428-.051.496-.256l.462-1.386a.45.45 0 00-.274-.581z" fill="#fff"/></svg>