<svg width="186" height="30" fill="none" xmlns="http://www.w3.org/2000/svg"><g clip-path="url(#clip0)"><path d="M35.717 7.492l-4.596 22.327h9.324l4.467-22.327h7.88l-4.465 22.327h9.324l2.233-11.557h6.699l-2.234 11.557h9.325L79.584.006H70.26l-2.364 11.557h-6.697L63.56.006H6.693L.65 29.819h22.721l1.446-7.486H11.42l.787-4.071h13.397l1.445-6.699H13.653l.789-4.071h21.275zm78.54 14.315c-1.051 5.255-5.122 5.518-5.91 5.518-2.364 0-3.677-1.314-3.677-3.547 0-.525.131-1.182.261-1.838l2.497-12.608h-3.021L101.78 22.2v.132a7.715 7.715 0 00-.262 1.838c0 3.415 2.232 5.78 5.647 5.78 2.496 0 4.465-.788 5.911-2.365l-.394 2.103h2.888l4.072-20.357h-3.021l-2.364 12.475zM134.614 9.07c-2.364 0-4.334.918-5.646 2.625l.393-2.362h-2.891l-4.072 20.357h3.021l2.495-12.478c.657-3.153 3.153-5.517 5.911-5.517 1.181 0 2.101.526 2.889 1.446l2.364-2.101c-1.182-1.314-2.626-1.97-4.465-1.97h.001zm-49.25 2.888h10.112L81.95 27.323l-.526 2.496H95.87l.525-2.627H85.626l13.528-15.366.525-2.494H85.888l-.525 2.625zm61.071-2.625h-2.889l-4.071 20.357-.133.13h3.021l4.072-20.487zm33.36-.263c-2.496 0-4.334.787-5.779 2.364L176.379.006h-3.02l-6.041 29.813h3.021l2.494-12.477c1.051-5.253 5.122-5.516 6.042-5.516 2.232 0 3.676 1.314 3.676 3.546 0 .526-.13 1.183-.261 1.84l-2.495 12.607h3.019l2.627-12.87c.133-.658.263-1.314.263-1.97-.261-3.546-2.494-5.91-5.909-5.91zm-19.702 0c-5.383 0-9.193 3.808-10.375 10.374-.263 1.05-.263 2.364-.263 3.153 0 4.596 2.758 7.354 7.223 7.354 2.628 0 4.992-1.05 6.83-2.889l-1.708-2.1c-1.575 1.707-3.019 2.364-4.859 2.364-2.101 0-4.334-1.314-4.334-4.729 0-1.05.132-1.97.263-3.02.262-1.708 1.051-4.204 2.627-5.78 1.314-1.313 2.758-1.97 4.465-1.97 1.838 0 2.891.657 3.941 2.232l2.232-1.838c-1.707-2.233-3.545-3.153-6.042-3.153v.002zm-12.476-5.387l.786-3.676h-3.021l-.787 3.676h3.022zm-29.026 0l.788-3.676h-3.021l-.655 3.676h2.888zm-7.879 0l.787-3.676h-3.021l-.787 3.676h3.021z" fill="#fff"/></g><defs><clipPath id="clip0"><path fill="#fff" transform="translate(.65)" d="M0 0h184.729v30H0z"/></clipPath></defs></svg>