<svg width="99" height="30" fill="none" xmlns="http://www.w3.org/2000/svg"><g clip-path="url(#clip0)" fill="#fff"><path d="M88.05 21.906l9.091.043a.208.208 0 01.208.208l-.016 2.33a.214.214 0 01-.207.212l-14.91.198a.213.213 0 01-.215-.208c0-.043.013-.085.038-.12l10.406-15.27a.21.21 0 00-.174-.329h-8.93a.217.217 0 01-.211-.21V6.254a.209.209 0 01.21-.211h14.6a.21.21 0 01.174.329L87.884 21.58a.208.208 0 00.165.31v.016zm-7.645-5.811h-8.5a.167.167 0 00-.167.167V18.2c0 .092.075.167.168.167h8.5a.167.167 0 00.167-.168v-1.937a.167.167 0 00-.168-.167zm-24.522-5.013H53.13a.251.251 0 00-.251.251v13.215c0 .138.112.25.251.25h2.753a.251.251 0 00.25-.25V11.333a.251.251 0 00-.25-.251zm-1.399-2.22a1.99 1.99 0 100-3.98 1.99 1.99 0 000 3.98zm7.124-.918h2.669a.195.195 0 01.195.196V11a.198.198 0 00.199.2h4.34a.199.199 0 01.198.194v2.146a.198.198 0 01-.199.195h-4.28a.196.196 0 00-.136.069.2.2 0 00-.047.145v6.134s.028 2.403 2.508 2.508c0 0 .8.12 1.773-.62a.202.202 0 01.278.04.21.21 0 01.032.065l.508 1.839a.195.195 0 01-.068.204c-.347.273-1.594 1.11-3.658.989 0 0-4.238-.115-4.411-4.405v-6.776a.198.198 0 00-.199-.198h-1.224a.199.199 0 01-.198-.196v-1.93a.198.198 0 01.198-.2h1.14a.198.198 0 00.2-.195V8.14a.196.196 0 01.182-.196zM24.001 14.49s2.151-1.637 2.13-6.262c0 0 .241-4.774-5.04-7.213a11.708 11.708 0 00-4.902-1.017H.821A.412.412 0 00.38.38v29.232a.412.412 0 00.436.384l15.884-.093c2.588.025 5.201-.48 7.238-1.888 1.897-1.323 2.985-2.74 3.41-6.044 0 0 .722-4.787-3.348-7.48zm-4.454-3.695l-7.558 8.23h7.558v3.214H6.41v-2.672l7.749-8.332h-7.75V8.213h13.138v2.582zm26.335 4.559s2.697-1.187 2.685-4.054a5.061 5.061 0 00-2.728-4.483 5.682 5.682 0 00-2.653-.62h-8.33a.235.235 0 00-.238.239v18.121a.236.236 0 00.235.236l8.615-.056a6.097 6.097 0 003.868-1.311c1.026-.818 2-2.043 1.987-3.72-.006-.01.149-2.814-3.44-4.352zm-7.957-6.51h4.324c.46-.005.918.07 1.352.224a3.1 3.1 0 01.778.418 2.409 2.409 0 01.462 3.382 2.322 2.322 0 01-.347.372 2.79 2.79 0 01-.403.31 2.48 2.48 0 01-1.259.31h-4.907V8.844zm7.22 12.542a2.666 2.666 0 01-1.826.664h-5.394v-5.366h4.752a4.395 4.395 0 011.485.239c.304.105.592.25.856.434a2.538 2.538 0 01.127 4.03z"/></g><defs><clipPath id="clip0"><path fill="#fff" transform="translate(.38)" d="M0 0h97.771v30H0z"/></clipPath></defs></svg>